<?xml version="1.0" encoding="UTF-8" standalone="no"?>
<!-- Created with Inkscape (http://www.inkscape.org/) -->

<svg
   xmlns:dc="http://purl.org/dc/elements/1.1/"
   xmlns:cc="http://creativecommons.org/ns#"
   xmlns:rdf="http://www.w3.org/1999/02/22-rdf-syntax-ns#"
   xmlns:svg="http://www.w3.org/2000/svg"
   xmlns="http://www.w3.org/2000/svg"
   xmlns:xlink="http://www.w3.org/1999/xlink"
   xmlns:sodipodi="http://sodipodi.sourceforge.net/DTD/sodipodi-0.dtd"
   xmlns:inkscape="http://www.inkscape.org/namespaces/inkscape"
   width="60.959999mm"
   height="128.5mm"
   viewBox="0 0 60.959999 128.5"
   version="1.1"
   id="svg2232"
   inkscape:version="0.92.5 (2060ec1f9f, 2020-04-08)"
   sodipodi:docname="V204-Quad_Panner.svg">
  <defs
     id="defs2226">
    <linearGradient
       inkscape:collect="always"
       id="linearGradient3006">
      <stop
         style="stop-color:#646464;stop-opacity:1"
         offset="0"
         id="stop3002" />
      <stop
         style="stop-color:#353535;stop-opacity:1"
         offset="1"
         id="stop3004" />
    </linearGradient>
    <linearGradient
       inkscape:collect="always"
       xlink:href="#linearGradient4408"
       id="linearGradient4954-6"
       gradientUnits="userSpaceOnUse"
       x1="110.74702"
       y1="130.87947"
       x2="111.50298"
       y2="242.57143"
       gradientTransform="matrix(1.3318125,0,0,0.99973634,-112.41675,-125.49794)" />
    <linearGradient
       inkscape:collect="always"
       id="linearGradient4408">
      <stop
         style="stop-color:#333131;stop-opacity:1"
         offset="0"
         id="stop4404" />
      <stop
         style="stop-color:#292727;stop-opacity:1"
         offset="1"
         id="stop4406" />
    </linearGradient>
    <radialGradient
       inkscape:collect="always"
       xlink:href="#linearGradient3006"
       id="radialGradient3008"
       cx="-50.648808"
       cy="230.38168"
       fx="-50.648808"
       fy="230.38168"
       r="20"
       gradientUnits="userSpaceOnUse"
       gradientTransform="translate(81.128807,20.618309)" />
  </defs>
  <sodipodi:namedview
     id="base"
     pagecolor="#ffffff"
     bordercolor="#666666"
     borderopacity="1.0"
     inkscape:pageopacity="0.0"
     inkscape:pageshadow="2"
     inkscape:zoom="1.4"
     inkscape:cx="34.205358"
     inkscape:cy="206.66861"
     inkscape:document-units="mm"
     inkscape:current-layer="layer3"
     showgrid="false"
     showguides="true"
     inkscape:guide-bbox="true"
     inkscape:window-width="1920"
     inkscape:window-height="1033"
     inkscape:window-x="0"
     inkscape:window-y="0"
     inkscape:window-maximized="1"
     inkscape:snap-text-baseline="false"
     inkscape:snap-bbox="true"
     inkscape:bbox-nodes="false"
     inkscape:snap-bbox-edge-midpoints="false"
     inkscape:snap-bbox-midpoints="true"
     inkscape:snap-object-midpoints="true"
     inkscape:snap-nodes="false"
     inkscape:snap-others="false">
    <sodipodi:guide
       position="9.2604168,122"
       orientation="0,1"
       id="guide2805"
       inkscape:locked="false"
       inkscape:label=""
       inkscape:color="rgb(0,0,255)" />
    <sodipodi:guide
       position="-26.647322,4.0000001"
       orientation="0,1"
       id="guide2807"
       inkscape:locked="false"
       inkscape:label=""
       inkscape:color="rgb(0,0,255)" />
    <sodipodi:guide
       position="30.48,101.865"
       orientation="1,0"
       id="guide2809"
       inkscape:locked="false"
       inkscape:label=""
       inkscape:color="rgb(0,0,255)" />
    <sodipodi:guide
       position="-17.372519,84.000001"
       orientation="0,1"
       id="guide3010"
       inkscape:locked="false"
       inkscape:label=""
       inkscape:color="rgb(0,0,255)" />
    <sodipodi:guide
       position="38.486812,100"
       orientation="0,1"
       id="guide3012"
       inkscape:locked="false"
       inkscape:label=""
       inkscape:color="rgb(0,0,255)" />
    <sodipodi:guide
       position="37.480001,100"
       orientation="1,0"
       id="guide3014"
       inkscape:locked="false"
       inkscape:label=""
       inkscape:color="rgb(0,0,255)" />
    <sodipodi:guide
       position="30.48,12"
       orientation="0,1"
       id="guide3110"
       inkscape:locked="false"
       inkscape:label=""
       inkscape:color="rgb(0,0,255)" />
    <sodipodi:guide
       position="-6.4144687,46.000001"
       orientation="0,1"
       id="guide3142"
       inkscape:locked="false"
       inkscape:label=""
       inkscape:color="rgb(0,0,255)" />
    <sodipodi:guide
       position="39.781995,111"
       orientation="0,1"
       id="guide3195"
       inkscape:locked="false"
       inkscape:label=""
       inkscape:color="rgb(0,0,255)" />
    <sodipodi:guide
       position="51.480001,102.89877"
       orientation="1,0"
       id="guide3201"
       inkscape:locked="false"
       inkscape:label=""
       inkscape:color="rgb(0,0,255)" />
    <sodipodi:guide
       position="23.48,110"
       orientation="1,0"
       id="guide3296"
       inkscape:locked="false"
       inkscape:label=""
       inkscape:color="rgb(0,0,255)" />
    <sodipodi:guide
       position="9.4799998,104.90329"
       orientation="1,0"
       id="guide3298"
       inkscape:locked="false"
       inkscape:label=""
       inkscape:color="rgb(0,0,255)" />
    <sodipodi:guide
       position="41.980001,103.16604"
       orientation="1,0"
       id="guide3360"
       inkscape:locked="false"
       inkscape:label=""
       inkscape:color="rgb(0,0,255)" />
    <sodipodi:guide
       position="46.980001,108.17734"
       orientation="1,0"
       id="guide3362"
       inkscape:locked="false"
       inkscape:label=""
       inkscape:color="rgb(0,0,255)" />
    <sodipodi:guide
       position="-17.907059,68.000001"
       orientation="0,1"
       id="guide3520"
       inkscape:locked="false"
       inkscape:label=""
       inkscape:color="rgb(0,0,255)" />
    <sodipodi:guide
       position="-14.967094,24.000001"
       orientation="0,1"
       id="guide3522"
       inkscape:locked="false"
       inkscape:label=""
       inkscape:color="rgb(0,0,255)" />
    <sodipodi:guide
       position="8.4799996,53.721176"
       orientation="1,0"
       id="guide3524"
       inkscape:locked="false"
       inkscape:label=""
       inkscape:color="rgb(0,0,255)" />
    <sodipodi:guide
       position="52.48,57.46295"
       orientation="1,0"
       id="guide3526"
       inkscape:locked="false"
       inkscape:label=""
       inkscape:color="rgb(0,0,255)" />
  </sodipodi:namedview>
  <metadata
     id="metadata2229">
    <rdf:RDF>
      <cc:Work
         rdf:about="">
        <dc:format>image/svg+xml</dc:format>
        <dc:type
           rdf:resource="http://purl.org/dc/dcmitype/StillImage" />
        <dc:title></dc:title>
      </cc:Work>
    </rdf:RDF>
  </metadata>
  <g
     inkscape:groupmode="layer"
     id="layer2"
     inkscape:label="BG"
     style="display:inline">
    <path
       style="display:inline;fill:url(#linearGradient4954-6);fill-opacity:1;stroke:#6e6e6e;stroke-width:0;stroke-miterlimit:4;stroke-dasharray:none;stroke-opacity:1"
       d="M 5e-7,1.036e-5 H 60.96 V 128.5 H 5e-7 Z"
       id="rect4381-3"
       inkscape:connector-curvature="0" />
    <g
       style="display:inline;fill:#f4da98;fill-opacity:1"
       id="g5209"
       transform="matrix(0.08298617,0,0,0.08298617,4.7852934,-8.12497)">
      <path
         id="path5127"
         d="m 214.99637,1552.7296 c 0,1.2024 0.4136,2.1976 1.24,2.9864 0.8256,0.7888 1.84,1.1832 3.044,1.1832 1.2024,0 2.2264,-0.3936 3.0712,-1.1832 0.8464,-0.7888 1.268,-1.784 1.268,-2.9864 0,-0.94 -0.3096,-1.776 -0.9296,-2.5096 -0.6192,-0.732 -1.3808,-1.212 -2.2832,-1.4368 0.9024,-0.2624 1.6632,-0.76 2.2832,-1.4936 0.62,-0.732 0.9296,-1.5864 0.9296,-2.5648 0,-1.1272 -0.4216,-2.0928 -1.268,-2.9016 -0.8448,-0.808 -1.8688,-1.212 -3.0712,-1.212 -1.204,0 -2.2176,0.404 -3.044,1.212 -0.8264,0.8088 -1.24,1.7744 -1.24,2.9016 0,0.9784 0.2904,1.8328 0.8736,2.5648 0.5824,0.7336 1.3248,1.2312 2.2264,1.4936 -0.9016,0.2248 -1.6448,0.7048 -2.2264,1.4368 -0.5832,0.7344 -0.8736,1.5704 -0.8736,2.5096 z"
         inkscape:connector-curvature="0"
         style="fill:#f4da98;fill-opacity:1;stroke-width:0.80000007" />
      <path
         id="path5129"
         d="m 222.40837,1574.5688 c -0.3952,-0.356 -0.8552,-0.648 -1.3808,-0.8728 -0.5272,-0.2256 -1.0904,-0.34 -1.692,-0.34 -1.2024,0 -2.2168,0.4048 -3.0424,1.2128 -0.828,0.808 -1.2416,1.7568 -1.2416,2.8464 0,1.1272 0.3856,2.0856 1.156,2.8752 0.7696,0.7888 1.7,1.2208 2.7896,1.296 h 0.6768 c 1.0888,-0.075 2.0288,-0.5072 2.8168,-1.296 0.7896,-0.7888 1.184,-1.748 1.184,-2.8752 0,-0.5624 -0.1136,-1.0888 -0.3384,-1.5784 -0.2248,-0.4872 -0.5344,-0.9104 -0.928,-1.268 z"
         inkscape:connector-curvature="0"
         style="fill:#f4da98;fill-opacity:1;stroke-width:0.80000007" />
      <path
         id="path5131"
         d="m 220.01157,1565.1296 c 1.016,-0.1504 1.8688,-0.6016 2.5648,-1.352 0.6944,-0.7512 1.0424,-1.6536 1.0424,-2.7056 0,-1.1272 -0.4216,-2.0944 -1.268,-2.9032 -0.8448,-0.8072 -1.8688,-1.212 -3.0712,-1.212 -1.1272,0 -2.096,0.3568 -2.9032,1.0704 -0.8088,0.7152 -1.268,1.5984 -1.3808,2.6496 -0.1504,-1.0144 -0.6304,-1.8688 -1.4376,-2.5648 -0.8088,-0.6944 -1.756,-1.0424 -2.8464,-1.0424 -1.0904,0 -2.0384,0.348 -2.8464,1.0424 -0.8088,0.696 -1.288,1.5504 -1.4376,2.5648 -0.1128,-1.0504 -0.5832,-1.9344 -1.4088,-2.6496 -0.8272,-0.7136 -1.7848,-1.0704 -2.8752,-1.0704 -1.1648,0 -2.1608,0.3848 -2.9864,1.1544 -0.82721,0.7712 -1.26001,1.7008 -1.29601,2.7904 -0.0768,-1.0896 -0.5272,-2.0192 -1.3528,-2.7904 -0.8264,-0.7696 -1.8224,-1.1544 -2.9864,-1.1544 -1.2032,0 -2.2176,0.4048 -3.0448,1.212 -0.8264,0.8088 -1.2392,1.776 -1.2392,2.9032 0,1.0888 0.3848,2.0288 1.1552,2.8168 0.7696,0.7896 1.6992,1.2208 2.7888,1.296 -1.1272,0.077 -2.084,0.5072 -2.8736,1.2968 -0.7888,0.788 -1.184,1.7288 -1.184,2.8168 0,1.0904 0.3848,2.0288 1.156,2.8192 0.7696,0.7872 1.6992,1.22 2.7896,1.2952 -1.0904,0.077 -2.02,0.508 -2.7896,1.296 -0.7712,0.7896 -1.156,1.7288 -1.156,2.8184 0,1.052 0.3568,1.9632 1.0712,2.7336 0.7136,0.7704 1.5968,1.2312 2.6496,1.3808 h 1.0704 c 1.0888,-0.1496 2.0008,-0.6104 2.7328,-1.3808 0.7336,-0.7704 1.0992,-1.6816 1.0992,-2.7336 0,-1.0512 -0.3936,-1.9816 -1.1832,-2.7896 -0.788,-0.808 -1.7288,-1.2488 -2.8168,-1.3248 1.088,-0.075 2.0288,-0.508 2.8168,-1.2952 0.7896,-0.7904 1.1832,-1.7288 1.1832,-2.8192 0,-1.0504 -0.3936,-1.9808 -1.1832,-2.7888 -0.788,-0.8072 -1.7288,-1.2488 -2.8168,-1.3248 1.088,-0.075 2.0288,-0.4784 2.8168,-1.212 0.7896,-0.732 1.22,-1.6424 1.2968,-2.7328 0.036,1.0904 0.4688,2.02 1.29601,2.7896 0.8256,0.7704 1.8216,1.1544 2.9864,1.1544 1.0896,0 2.0384,-0.3464 2.8464,-1.0424 0.808,-0.6944 1.2872,-1.5304 1.4376,-2.5088 0.1128,1.0528 0.5728,1.9264 1.3808,2.6208 0.808,0.696 1.776,1.0432 2.9032,1.0432 1.0896,0 2.048,-0.3472 2.8752,-1.0432 0.8256,-0.6944 1.296,-1.568 1.4088,-2.6208 0.1496,0.9016 0.5536,1.6728 1.212,2.3112 0.6568,0.64 1.456,1.0344 2.3952,1.184 -1.0152,0.1872 -1.8592,0.6568 -2.536,1.4088 -0.6768,0.752 -1.016,1.6336 -1.016,2.6496 0,1.1648 0.4136,2.1408 1.2416,2.9312 0.8256,0.7872 1.84,1.1832 3.0424,1.1832 1.2024,0 2.2264,-0.3952 3.0728,-1.1832 0.8448,-0.7904 1.268,-1.7664 1.268,-2.9312 0,-1.016 -0.3576,-1.8968 -1.0704,-2.6496 -0.7144,-0.7504 -1.5776,-1.22 -2.5936,-1.4072 z"
         inkscape:connector-curvature="0"
         style="fill:#f4da98;fill-opacity:1;stroke-width:0.80000007" />
      <path
         id="path5133"
         d="m 242.13076,1560.8456 c 0,-1.1272 -0.4168,-2.0944 -1.2416,-2.9024 -0.8264,-0.808 -1.8424,-1.2128 -3.0448,-1.2128 -1.2024,0 -2.2248,0.4048 -3.0712,1.2128 -0.844,0.808 -1.268,1.7752 -1.268,2.9024 0,1.052 0.3584,1.9632 1.0712,2.7336 0.7136,0.7704 1.6152,1.2312 2.7056,1.3808 -1.0904,0.1128 -1.992,0.5544 -2.7056,1.3248 -0.7128,0.7704 -1.0712,1.6824 -1.0712,2.7328 0,1.1648 0.424,2.1424 1.268,2.9312 0.8464,0.7888 1.8688,1.1832 3.0712,1.1832 1.2024,0 2.2176,-0.3936 3.0448,-1.1832 0.8248,-0.7888 1.2416,-1.7664 1.2416,-2.9312 0,-1.0504 -0.3584,-1.9624 -1.072,-2.7328 -0.7152,-0.7704 -1.6168,-1.2128 -2.7056,-1.3248 1.0888,-0.1496 1.9904,-0.6104 2.7056,-1.3808 0.7136,-0.7704 1.072,-1.6816 1.072,-2.7336 z"
         inkscape:connector-curvature="0"
         style="fill:#f4da98;fill-opacity:1;stroke-width:0.80000007" />
      <path
         id="path5135"
         d="m 237.84436,1573.2448 c -1.2024,0 -2.2248,0.404 -3.0712,1.212 -0.844,0.808 -1.268,1.7752 -1.268,2.9024 0,1.0904 0.3584,2.0112 1.0712,2.7616 0.7136,0.752 1.6152,1.2032 2.7056,1.352 h 1.0712 c 1.0888,-0.1496 1.9904,-0.6 2.7056,-1.352 0.7136,-0.7504 1.072,-1.6712 1.072,-2.7616 0,-1.1272 -0.4168,-2.0944 -1.2416,-2.9024 -0.8264,-0.808 -1.8424,-1.212 -3.0448,-1.212 z"
         inkscape:connector-curvature="0"
         style="fill:#f4da98;fill-opacity:1;stroke-width:0.80000007" />
      <path
         id="path5137"
         d="m 237.84436,1540.556 c -1.2024,0 -2.2248,0.404 -3.0712,1.2112 -0.844,0.8088 -1.268,1.776 -1.268,2.9032 0,1.1272 0.424,2.0952 1.268,2.9024 0.8464,0.8088 1.8688,1.212 3.0712,1.212 1.2024,0 2.2176,-0.4032 3.0448,-1.212 0.8248,-0.8072 1.2416,-1.7752 1.2416,-2.9024 0,-1.1272 -0.4168,-2.0944 -1.2416,-2.9032 -0.8264,-0.8072 -1.8424,-1.2112 -3.0448,-1.2112 z"
         inkscape:connector-curvature="0"
         style="fill:#f4da98;fill-opacity:1;stroke-width:0.80000007" />
      <path
         id="path5139"
         d="m 256.30036,1573.3008 c -1.204,0 -2.2272,0.4048 -3.0712,1.212 -0.848,0.8088 -1.268,1.7752 -1.268,2.9024 0,1.0904 0.3544,2.0104 1.0696,2.7616 0.7136,0.752 1.6152,1.204 2.7056,1.3528 h 1.0696 c 1.0904,-0.1496 1.992,-0.6008 2.7048,-1.3528 0.716,-0.7512 1.072,-1.6712 1.072,-2.7616 0,-1.1272 -0.4128,-2.0936 -1.2392,-2.9024 -0.8272,-0.8072 -1.84,-1.212 -3.0432,-1.212 z"
         inkscape:connector-curvature="0"
         style="fill:#f4da98;fill-opacity:1;stroke-width:0.80000007" />
      <path
         id="path5141"
         d="m 282.00117,1564.96 c -0.528,0 -1.00561,0.076 -1.43761,0.2248 -0.4336,0.1504 -0.836,0.3576 -1.2136,0.6208 0.3776,-0.3008 0.5664,-0.7144 0.5664,-1.2416 0,-0.4872 -0.1696,-0.8904 -0.5088,-1.2112 -0.34,-0.3184 -0.7328,-0.4792 -1.1832,-0.4792 -0.3776,0 -0.7512,0.132 -1.1288,0.3944 0.528,-0.7136 0.7896,-1.5024 0.7896,-2.3672 0,-1.1272 -0.4128,-2.0944 -1.2408,-2.9032 -0.8248,-0.8072 -1.8408,-1.2112 -3.0408,-1.2112 -1.2048,0 -2.2272,0.404 -3.0736,1.2112 -0.8464,0.8088 -1.268,1.776 -1.268,2.9032 0,1.1272 0.4216,2.0952 1.268,2.9024 0.8464,0.8088 1.8688,1.2112 3.0736,1.2112 1.2,0 2.216,-0.412 3.0408,-1.2384 -0.112,0.2248 -0.168,0.488 -0.168,0.7872 0,0.4896 0.168,0.8928 0.5072,1.2128 0.3392,0.32 0.7512,0.48 1.2408,0.48 0.3008,0 0.6016,-0.094 0.9016,-0.2832 -0.4504,0.4152 -0.8088,0.8744 -1.0712,1.3816 -0.2616,0.508 -0.3928,1.0808 -0.3928,1.7184 0,1.1656 0.42,2.1424 1.268,2.9304 0.844,0.7896 1.8672,1.184 3.07121,1.184 1.2024,0 2.2168,-0.3944 3.0432,-1.184 0.8264,-0.788 1.2392,-1.7648 1.2392,-2.9304 0,-1.1272 -0.4128,-2.0936 -1.2392,-2.9024 -0.8272,-0.8064 -1.8408,-1.2104 -3.0432,-1.2104 z"
         inkscape:connector-curvature="0"
         style="fill:#f4da98;fill-opacity:1;stroke-width:0.80000007" />
      <path
         id="path5143"
         d="m 264.75396,1556.788 c -1.052,0 -1.972,0.3184 -2.7616,0.9576 -0.7896,0.64 -1.2968,1.4288 -1.5216,2.3672 -0.1888,-0.9384 -0.6672,-1.7272 -1.4376,-2.3672 -0.7712,-0.6392 -1.6824,-0.9576 -2.7328,-0.9576 -1.204,0 -2.2272,0.404 -3.0712,1.2112 -0.848,0.8088 -1.268,1.776 -1.268,2.9032 0,1.0512 0.3544,1.9632 1.0696,2.7328 0.7136,0.7712 1.6152,1.2312 2.7056,1.3808 -1.0904,0.1144 -1.992,0.5552 -2.7056,1.3248 -0.7152,0.7712 -1.0696,1.6824 -1.0696,2.7336 0,1.1656 0.42,2.1424 1.268,2.9304 0.844,0.7896 1.8672,1.184 3.0712,1.184 1.2032,0 2.2168,-0.3944 3.0432,-1.184 0.8264,-0.788 1.2392,-1.7648 1.2392,-2.9304 0,-1.0512 -0.356,-1.9624 -1.072,-2.7336 -0.7128,-0.7696 -1.6144,-1.2112 -2.7048,-1.3248 0.94,-0.112 1.7376,-0.4688 2.3968,-1.0704 0.6568,-0.6 1.0792,-1.3328 1.268,-2.1976 0.2248,0.94 0.732,1.7184 1.5216,2.3384 0.7896,0.6208 1.7096,0.9296 2.7616,0.9296 1.2024,0 2.2168,-0.4024 3.0424,-1.2112 0.8264,-0.8072 1.2408,-1.7752 1.2408,-2.9024 0,-1.1272 -0.4144,-2.0944 -1.2408,-2.9032 -0.8248,-0.8072 -1.84,-1.2112 -3.0424,-1.2112 z"
         inkscape:connector-curvature="0"
         style="fill:#f4da98;fill-opacity:1;stroke-width:0.80000007" />
      <path
         id="path5145"
         d="m 285.29637,1580.064 c 0.6584,-0.7512 0.9864,-1.6344 0.9864,-2.6496 0,-1.1272 -0.4128,-2.0936 -1.2392,-2.9024 -0.8264,-0.8072 -1.8408,-1.212 -3.0432,-1.212 -1.20401,0 -2.22721,0.4048 -3.07121,1.212 -0.848,0.8088 -1.268,1.7752 -1.268,2.9024 0,1.0152 0.3272,1.8976 0.984,2.6496 0.6568,0.752 1.4744,1.2216 2.4528,1.4088 h 0.56241 c -1.09041,0.076 -2.02881,0.508 -2.81681,1.2968 -0.7896,0.7888 -1.1832,1.728 -1.1832,2.8176 0,1.1272 0.42,2.0951 1.268,2.9031 0.844,0.808 1.8672,1.212 3.07121,1.212 1.2024,0 2.2168,-0.404 3.0432,-1.212 0.8264,-0.808 1.2392,-1.7759 1.2392,-2.9031 0,-1.0896 -0.3856,-2.0288 -1.1544,-2.8176 -0.7704,-0.7888 -1.7016,-1.2208 -2.7896,-1.2968 h 0.5072 c 0.9768,-0.1864 1.7944,-0.656 2.4512,-1.4088 z"
         inkscape:connector-curvature="0"
         style="fill:#f4da98;fill-opacity:1;stroke-width:0.80000007" />
      <path
         id="path5147"
         d="m 299.71237,1563.8608 c 0.64,0.62 1.428,1.0056 2.3664,1.1544 -1.052,0.1888 -1.9152,0.6584 -2.5912,1.4104 -0.6768,0.752 -1.016,1.6344 -1.016,2.6488 0,1.1656 0.424,2.1424 1.268,2.9304 0.848,0.7896 1.8688,1.184 3.0736,1.184 1.2,0 2.216,-0.3944 3.0424,-1.184 0.8264,-0.788 1.2416,-1.7648 1.2416,-2.9304 0,-1.0144 -0.3496,-1.896 -1.0448,-2.6488 -0.6936,-0.7512 -1.5496,-1.2208 -2.5624,-1.4104 0.9752,-0.1496 1.7832,-0.5432 2.4232,-1.1832 0.6384,-0.6392 1.0144,-1.428 1.1256,-2.3672 0.1504,0.9784 0.6392,1.8136 1.4664,2.508 0.8264,0.696 1.7832,1.0424 2.8744,1.0424 1.0888,0 2.0376,-0.3464 2.8472,-1.0424 0.8064,-0.6944 1.2672,-1.5496 1.38,-2.5648 0.1504,1.016 0.6392,1.8704 1.4656,2.5648 0.8264,0.696 1.784,1.0424 2.8752,1.0424 1.2,0 2.216,-0.4024 3.0424,-1.2112 0.8264,-0.8072 1.2408,-1.7752 1.2408,-2.9024 0,-1.1272 -0.4144,-2.0944 -1.2408,-2.9032 -0.8264,-0.8072 -1.8424,-1.2112 -3.0424,-1.2112 -1.0904,0 -2.0488,0.348 -2.8752,1.0424 -0.8264,0.696 -1.316,1.5496 -1.4656,2.5648 -0.1128,-1.016 -0.5736,-1.8688 -1.38,-2.5648 -0.8096,-0.6944 -1.7576,-1.0424 -2.8472,-1.0424 -1.0904,0 -2.048,0.3568 -2.8744,1.0704 -0.8272,0.7144 -1.3168,1.5784 -1.4664,2.5928 -0.112,-0.9392 -0.4976,-1.728 -1.1544,-2.3672 -0.6568,-0.6392 -1.456,-1.0328 -2.3944,-1.184 1.0136,-0.1496 1.8688,-0.6 2.5624,-1.352 0.6952,-0.7504 1.0448,-1.652 1.0448,-2.7056 0,-1.0888 -0.3856,-2.0184 -1.156,-2.7888 -0.7712,-0.7704 -1.7,-1.2128 -2.7904,-1.3248 1.016,-0.1496 1.8696,-0.6 2.5648,-1.352 0.696,-0.7512 1.0432,-1.6536 1.0432,-2.7056 0,-1.1272 -0.4128,-2.0944 -1.2392,-2.9032 -0.8264,-0.8072 -1.8424,-1.2112 -3.0448,-1.2112 -1.2024,0 -2.2256,0.404 -3.072,1.2112 -0.8456,0.8088 -1.268,1.776 -1.268,2.9032 0,1.0904 0.376,2.0288 1.1272,2.8176 0.7512,0.7888 1.692,1.2216 2.8168,1.296 -1.052,0.188 -1.9152,0.6576 -2.5912,1.4096 -0.6768,0.752 -1.016,1.6344 -1.016,2.6488 0,1.0528 0.3392,1.9544 1.016,2.7056 0.6768,0.752 1.5392,1.2032 2.5912,1.352 -0.9016,0.1512 -1.6808,0.536 -2.3392,1.156 -0.6568,0.6192 -1.06,1.3624 -1.2104,2.2256 -0.1888,-0.9768 -0.6664,-1.804 -1.4376,-2.4808 -0.7704,-0.676 -1.6992,-1.0136 -2.7896,-1.0136 -1.2024,0 -2.2272,0.404 -3.072,1.2112 -0.8456,0.8088 -1.268,1.776 -1.268,2.9032 0,1.1272 0.4224,2.0952 1.268,2.9024 0.8448,0.8088 1.8696,1.2112 3.072,1.2112 1.0512,0 1.9728,-0.3176 2.7608,-0.9568 0.7896,-0.6392 1.2776,-1.4464 1.4664,-2.424 0.1504,0.864 0.5448,1.6064 1.1832,2.2264 z"
         inkscape:connector-curvature="0"
         style="fill:#f4da98;fill-opacity:1;stroke-width:0.80000007" />
      <path
         id="path5149"
         d="m 302.81317,1573.3008 c -1.2048,0 -2.2256,0.4048 -3.0736,1.212 -0.844,0.8088 -1.268,1.7752 -1.268,2.9024 0,1.0904 0.3584,2.0104 1.0712,2.7616 0.7136,0.752 1.6152,1.204 2.7056,1.3528 h 1.0712 c 1.0904,-0.1496 1.9928,-0.6008 2.7056,-1.3528 0.7136,-0.7512 1.072,-1.6712 1.072,-2.7616 0,-1.1272 -0.4152,-2.0936 -1.2416,-2.9024 -0.8264,-0.8072 -1.8424,-1.212 -3.0424,-1.212 z"
         inkscape:connector-curvature="0"
         style="fill:#f4da98;fill-opacity:1;stroke-width:0.80000007" />
      <path
         id="path5151"
         d="m 332.24997,1564.96 c -1.2048,0 -2.228,0.4048 -3.072,1.212 -0.8472,0.8088 -1.2672,1.7752 -1.2672,2.9024 0,1.1656 0.42,2.1424 1.2672,2.9304 0.844,0.7896 1.8672,1.184 3.072,1.184 1.2032,0 2.216,-0.3944 3.0424,-1.184 0.8264,-0.788 1.2392,-1.7648 1.2392,-2.9304 0,-1.1272 -0.4128,-2.0936 -1.2392,-2.9024 -0.8264,-0.808 -1.8392,-1.212 -3.0424,-1.212 z"
         inkscape:connector-curvature="0"
         style="fill:#f4da98;fill-opacity:1;stroke-width:0.80000007" />
      <path
         id="path5153"
         d="m 349.38437,1556.788 c -1.0904,0 -2.0512,0.348 -2.8752,1.0424 -0.8296,0.696 -1.3168,1.5496 -1.4656,2.5648 -0.116,-1.016 -0.5736,-1.8688 -1.3832,-2.5648 -0.808,-0.6944 -1.7544,-1.0424 -2.844,-1.0424 -1.2048,0 -2.228,0.404 -3.072,1.2112 -0.8488,0.8088 -1.2672,1.776 -1.2672,2.9032 0,0.8648 0.2608,1.6536 0.7856,2.3672 -0.336,-0.2624 -0.6936,-0.3944 -1.0704,-0.3944 -0.4872,0 -0.9016,0.16 -1.2392,0.4792 -0.3392,0.32 -0.508,0.7232 -0.508,1.2112 0,0.4896 0.1688,0.8928 0.508,1.2128 0.3376,0.3192 0.7512,0.48 1.2392,0.48 0.4512,0 0.8472,-0.16 1.1856,-0.48 0.3344,-0.3192 0.5048,-0.7224 0.5048,-1.2128 0,-0.1864 -0.0752,-0.4688 -0.2232,-0.8448 0.4128,0.4144 0.8832,0.7328 1.4064,0.9584 0.528,0.2248 1.1096,0.3368 1.7504,0.3368 1.0888,0 2.036,-0.3464 2.844,-1.0424 0.8096,-0.6944 1.2672,-1.5496 1.3832,-2.5648 0.1488,1.016 0.636,1.8704 1.4656,2.5648 0.8232,0.696 1.784,1.0424 2.8752,1.0424 1.2016,0 2.216,-0.4024 3.0424,-1.2112 0.8264,-0.8072 1.2392,-1.7752 1.2392,-2.9024 0,-1.1272 -0.4128,-2.0944 -1.2392,-2.9032 -0.8264,-0.8072 -1.8408,-1.2112 -3.0424,-1.2112 z"
         inkscape:connector-curvature="0"
         style="fill:#f4da98;fill-opacity:1;stroke-width:0.80000007" />
      <path
         id="path5155"
         d="m 332.24997,1573.3008 c -1.2048,0 -2.228,0.4048 -3.072,1.212 -0.8472,0.8088 -1.2672,1.7752 -1.2672,2.9024 0,1.0904 0.3544,2.0104 1.0688,2.7616 0.7144,0.752 1.616,1.204 2.7064,1.3528 h 1.0688 c 1.0904,-0.1496 1.992,-0.6008 2.7048,-1.3528 0.716,-0.7512 1.072,-1.6712 1.072,-2.7616 0,-1.1272 -0.4128,-2.0936 -1.2392,-2.9024 -0.8264,-0.8072 -1.8392,-1.212 -3.0424,-1.212 z"
         inkscape:connector-curvature="0"
         style="fill:#f4da98;fill-opacity:1;stroke-width:0.80000007" />
      <path
         id="path5157"
         d="m 382.08917,1564.564 c 0,0.4896 0.1688,0.8928 0.5048,1.2128 0.3392,0.3192 0.736,0.48 1.1856,0.48 0.2968,0 0.564,-0.057 0.7872,-0.1696 -0.9752,0.7888 -1.4656,1.8224 -1.4656,3.1 0,1.1648 0.4128,2.1408 1.2424,2.9312 0.8232,0.7872 1.8376,1.1832 3.044,1.1832 1.1984,0 2.2232,-0.3952 3.072,-1.1832 0.844,-0.7904 1.2672,-1.7664 1.2672,-2.9312 0,-1.1272 -0.4232,-2.0944 -1.2672,-2.9024 -0.8488,-0.808 -1.8736,-1.2128 -3.072,-1.2128 -0.8672,0 -1.6376,0.2256 -2.3128,0.6768 0.3,-0.3752 0.4512,-0.7696 0.4512,-1.184 0,-0.4872 -0.1704,-0.8904 -0.5096,-1.2112 -0.3344,-0.3184 -0.7512,-0.4792 -1.2376,-0.4792 -0.4496,0 -0.8472,0.16 -1.1856,0.4792 -0.3352,0.32 -0.504,0.7232 -0.504,1.2104 z"
         inkscape:connector-curvature="0"
         style="fill:#f4da98;fill-opacity:1;stroke-width:0.80000007" />
      <path
         id="path5159"
         d="m 357.34517,1577.5288 c 0,1.052 0.3592,1.9632 1.072,2.7336 0.7128,0.7704 1.5968,1.2312 2.6512,1.3808 h 1.0688 c 1.0888,-0.1496 2.0016,-0.6104 2.7344,-1.3808 0.7328,-0.7704 1.0984,-1.6816 1.0984,-2.7336 0,-1.0512 -0.3936,-1.9816 -1.1832,-2.7896 -0.7904,-0.808 -1.7312,-1.2488 -2.8168,-1.3248 1.0856,-0.075 2.0264,-0.508 2.8168,-1.2952 0.7888,-0.7904 1.1832,-1.7288 1.1832,-2.8192 0,-1.0504 -0.3936,-1.9808 -1.1832,-2.7888 -0.7904,-0.8072 -1.7312,-1.2488 -2.8168,-1.3248 1.1248,-0.075 2.092,-0.4968 2.9016,-1.2672 0.8064,-0.7704 1.2096,-1.7184 1.2096,-2.8464 0,-1.128 -0.4216,-2.0944 -1.2672,-2.9032 -0.844,-0.8072 -1.8688,-1.212 -3.072,-1.212 -1.2016,0 -2.216,0.4048 -3.044,1.212 -0.8248,0.8088 -1.2376,1.776 -1.2376,2.9032 0,1.0888 0.384,2.0288 1.1544,2.8168 0.7688,0.7896 1.7,1.2208 2.7872,1.296 -1.1248,0.077 -2.084,0.5072 -2.872,1.2968 -0.7888,0.788 -1.1856,1.7288 -1.1856,2.8168 0,1.0904 0.3856,2.0288 1.156,2.8192 0.7704,0.7872 1.7,1.22 2.7904,1.2952 -1.0904,0.077 -2.02,0.508 -2.7904,1.296 -0.7688,0.7896 -1.1552,1.7288 -1.1552,2.8192 z"
         inkscape:connector-curvature="0"
         style="fill:#f4da98;fill-opacity:1;stroke-width:0.80000007" />
      <path
         id="path5161"
         d="m 370.42197,1565.072 c 1.0904,0 2.0296,-0.328 2.82,-0.9864 0.7856,-0.6568 1.2752,-1.4736 1.4624,-2.4512 0.1888,0.9784 0.6672,1.7944 1.4376,2.4512 0.7688,0.6584 1.7,0.9864 2.7904,0.9864 1.2016,0 2.2232,-0.4032 3.0704,-1.212 0.8456,-0.808 1.2688,-1.776 1.2688,-2.9032 0,-1.1272 -0.4232,-2.0936 -1.2688,-2.9016 -0.8472,-0.808 -1.8688,-1.2128 -3.0704,-1.2128 -1.0904,0 -2.0216,0.3296 -2.7904,0.9864 -0.7704,0.6584 -1.2488,1.4752 -1.4376,2.4512 -0.1872,-0.9768 -0.6768,-1.7928 -1.4624,-2.4512 -0.7904,-0.6568 -1.7296,-0.9864 -2.82,-0.9864 -1.2032,0 -2.2168,0.4048 -3.0408,1.2128 -0.8296,0.808 -1.2424,1.7744 -1.2424,2.9016 0,1.1272 0.4128,2.0952 1.2424,2.9032 0.824,0.8088 1.8376,1.212 3.0408,1.212 z"
         inkscape:connector-curvature="0"
         style="fill:#f4da98;fill-opacity:1;stroke-width:0.80000007" />
      <path
         id="path5163"
         d="m 387.38757,1573.3568 c -1.056,0 -1.9736,0.32 -2.7624,0.9592 -0.7904,0.6392 -1.28,1.4472 -1.4656,2.4224 -0.1888,-0.9384 -0.6856,-1.7184 -1.4952,-2.3384 -0.8096,-0.62 -1.7184,-0.9296 -2.7312,-0.9296 -1.0904,0 -2.0392,0.348 -2.8488,1.0424 -0.8048,0.696 -1.2856,1.5496 -1.436,2.5648 -0.1112,-1.052 -0.5816,-1.9352 -1.4064,-2.6496 -0.828,-0.7136 -1.7856,-1.072 -2.8752,-1.072 -1.2048,0 -2.22,0.4048 -3.044,1.2128 -0.8264,0.808 -1.2424,1.776 -1.2424,2.9024 0,1.1272 0.416,2.096 1.2424,2.9032 0.8232,0.8088 1.8392,1.212 3.044,1.212 1.0888,0 2.0376,-0.348 2.844,-1.0432 0.808,-0.6944 1.2872,-1.5296 1.4376,-2.508 0.1144,1.052 0.5736,1.9256 1.38,2.62 0.808,0.696 1.7752,1.0432 2.9048,1.0432 1.0512,0 1.972,-0.3096 2.7592,-0.9304 0.7888,-0.6184 1.2784,-1.4168 1.4672,-2.3944 0.2232,0.9392 0.7216,1.7104 1.492,2.3112 0.7704,0.6016 1.68,0.9016 2.736,0.9016 1.1984,0 2.2232,-0.3944 3.072,-1.1832 0.844,-0.7888 1.2672,-1.7664 1.2672,-2.9312 0,-1.1264 -0.4232,-2.0944 -1.2672,-2.9024 -0.8488,-0.808 -1.8736,-1.2128 -3.072,-1.2128 z"
         inkscape:connector-curvature="0"
         style="fill:#f4da98;fill-opacity:1;stroke-width:0.80000007" />
      <path
         id="path5165"
         d="m 395.57637,1577.5288 c 0,1.052 0.356,1.9632 1.072,2.7336 0.7128,0.7704 1.5968,1.2312 2.6488,1.3808 h 1.072 c 1.0888,-0.1496 2,-0.6104 2.7328,-1.3808 0.7312,-0.7704 1.0984,-1.6816 1.0984,-2.7336 0,-1.0512 -0.3936,-1.9816 -1.184,-2.7896 -0.7872,-0.808 -1.728,-1.2488 -2.816,-1.3248 1.0872,-0.075 2.028,-0.508 2.816,-1.2952 0.7904,-0.7904 1.184,-1.7288 1.184,-2.8192 0,-1.0504 -0.3936,-1.9808 -1.184,-2.7888 -0.7872,-0.8072 -1.728,-1.2488 -2.816,-1.3248 1.1264,-0.075 2.0936,-0.4968 2.9016,-1.2672 0.8064,-0.7704 1.2112,-1.7184 1.2112,-2.8464 0,-1.128 -0.4216,-2.0944 -1.2672,-2.9032 -0.8456,-0.8072 -1.8688,-1.212 -3.072,-1.212 -1.2048,0 -2.2168,0.4048 -3.044,1.212 -0.8264,0.8088 -1.2392,1.776 -1.2392,2.9032 0,1.0888 0.3832,2.0288 1.1528,2.8168 0.772,0.7896 1.7,1.2208 2.7904,1.296 -1.1264,0.077 -2.084,0.5072 -2.8736,1.2968 -0.7888,0.788 -1.184,1.7288 -1.184,2.8168 0,1.0904 0.3856,2.0288 1.156,2.8192 0.7688,0.7872 1.7,1.22 2.7904,1.2952 -1.0904,0.077 -2.0216,0.508 -2.7904,1.296 -0.7696,0.7896 -1.156,1.7288 -1.156,2.8192 z"
         inkscape:connector-curvature="0"
         style="fill:#f4da98;fill-opacity:1;stroke-width:0.80000007" />
      <path
         id="path5167"
         d="m 425.61877,1573.3568 c -1.0544,0 -1.9736,0.32 -2.764,0.9592 -0.7872,0.6392 -1.2768,1.4472 -1.464,2.4224 -0.1888,-0.9384 -0.6856,-1.7184 -1.4936,-2.3384 -0.808,-0.62 -1.72,-0.9296 -2.7328,-0.9296 -1.0904,0 -2.0392,0.348 -2.8472,1.0424 -0.8096,0.696 -1.2872,1.5496 -1.4376,2.5648 -0.1144,-1.052 -0.5832,-1.9352 -1.408,-2.6496 -0.8264,-0.7136 -1.7856,-1.072 -2.8752,-1.072 -1.2032,0 -2.2184,0.4048 -3.0456,1.2128 -0.8272,0.808 -1.2392,1.776 -1.2392,2.9024 0,1.1272 0.4128,2.096 1.2392,2.9032 0.8264,0.8088 1.8424,1.212 3.0456,1.212 1.0888,0 2.0376,-0.348 2.8456,-1.0432 0.808,-0.6944 1.2872,-1.5296 1.4376,-2.508 0.1144,1.052 0.572,1.9256 1.3816,2.62 0.808,0.696 1.7752,1.0432 2.9032,1.0432 1.0512,0 1.972,-0.3096 2.7608,-0.9304 0.7888,-0.6184 1.2768,-1.4168 1.4656,-2.3944 0.2248,0.9392 0.7232,1.7104 1.4936,2.3112 0.7688,0.6016 1.68,0.9016 2.7344,0.9016 1.2,0 2.2248,-0.3944 3.072,-1.1832 0.844,-0.7888 1.2672,-1.7664 1.2672,-2.9312 0,-1.1264 -0.4232,-2.0944 -1.2672,-2.9024 -0.8472,-0.808 -1.872,-1.2128 -3.072,-1.2128 z"
         inkscape:connector-curvature="0"
         style="fill:#f4da98;fill-opacity:1;stroke-width:0.80000007" />
      <path
         id="path5169"
         d="m 420.32037,1564.564 c 0,0.4896 0.1688,0.8928 0.5064,1.2128 0.3392,0.3192 0.7344,0.48 1.184,0.48 0.2984,0 0.5624,-0.057 0.7888,-0.1696 -0.9784,0.7888 -1.4672,1.8224 -1.4672,3.1 0,1.1648 0.4144,2.1408 1.2408,2.9312 0.8264,0.7872 1.8408,1.1832 3.0456,1.1832 1.2,0 2.2248,-0.3952 3.072,-1.1832 0.844,-0.7904 1.2672,-1.7664 1.2672,-2.9312 0,-1.1272 -0.4232,-2.0944 -1.2672,-2.9024 -0.8472,-0.808 -1.872,-1.2128 -3.072,-1.2128 -0.8656,0 -1.636,0.2256 -2.3128,0.6768 0.3,-0.3752 0.4512,-0.7696 0.4512,-1.184 0,-0.4872 -0.1704,-0.8904 -0.508,-1.2112 -0.3376,-0.3184 -0.7512,-0.4792 -1.2392,-0.4792 -0.4496,0 -0.8456,0.16 -1.184,0.4792 -0.3368,0.32 -0.5056,0.7232 -0.5056,1.2104 z"
         inkscape:connector-curvature="0"
         style="fill:#f4da98;fill-opacity:1;stroke-width:0.80000007" />
      <path
         id="path5171"
         d="m 408.65317,1565.072 c 1.0904,0 2.028,-0.328 2.8184,-0.9864 0.7872,-0.6568 1.2752,-1.4736 1.464,-2.4512 0.1888,0.9784 0.6672,1.7944 1.4376,2.4512 0.7704,0.6584 1.7,0.9864 2.7904,0.9864 1.2016,0 2.2248,-0.4032 3.0704,-1.212 0.8472,-0.808 1.2688,-1.776 1.2688,-2.9032 0,-1.1272 -0.4216,-2.0936 -1.2688,-2.9016 -0.8456,-0.808 -1.8688,-1.2128 -3.0704,-1.2128 -1.0904,0 -2.02,0.3296 -2.7904,0.9864 -0.7704,0.6584 -1.2488,1.4752 -1.4376,2.4512 -0.1888,-0.9768 -0.6768,-1.7928 -1.464,-2.4512 -0.7904,-0.6568 -1.728,-0.9864 -2.8184,-0.9864 -1.2032,0 -2.2184,0.4048 -3.044,1.2128 -0.8264,0.808 -1.2408,1.7744 -1.2408,2.9016 0,1.1272 0.4144,2.0952 1.2408,2.9032 0.8256,0.8088 1.8408,1.212 3.044,1.212 z"
         inkscape:connector-curvature="0"
         style="fill:#f4da98;fill-opacity:1;stroke-width:0.80000007" />
      <path
         id="path5173"
         d="m 197.74916,1585.9264 c 0,-1.164 -0.4224,-2.1424 -1.268,-2.9312 -0.8456,-0.7888 -1.8696,-1.1832 -3.072,-1.1832 -1.2024,0 -2.2168,0.3936 -3.0432,1.1832 -0.8272,0.7888 -1.2408,1.7672 -1.2408,2.9312 0,1.1271 0.4136,2.0951 1.2408,2.9023 0.8256,0.8088 1.8408,1.212 3.0432,1.212 1.2024,0 2.2264,-0.4032 3.072,-1.212 0.8456,-0.8072 1.268,-1.7752 1.268,-2.9023 z"
         inkscape:connector-curvature="0"
         style="fill:#f4da98;fill-opacity:1;stroke-width:0.80000007" />
      <path
         id="path5175"
         d="m 210.65637,1589.9279 c -1.052,0 -1.9728,0.3096 -2.7616,0.9304 -0.7888,0.6184 -1.2776,1.3992 -1.4656,2.3376 -0.1888,-0.9384 -0.6856,-1.7184 -1.4928,-2.3376 -0.8088,-0.6208 -1.7184,-0.9304 -2.7344,-0.9304 -0.5256,0 -1.024,0.084 -1.4936,0.2536 -0.4696,0.1688 -0.8928,0.404 -1.2672,0.704 0.1496,-0.3 0.2248,-0.5824 0.2248,-0.8456 0,-0.4872 -0.1696,-0.8912 -0.5072,-1.212 -0.3392,-0.3184 -0.752,-0.4784 -1.24081,-0.4784 -0.4888,0 -0.892,0.1592 -1.2112,0.4784 -0.3192,0.32 -0.4792,0.724 -0.4792,1.212 0,0.4888 0.1592,0.8928 0.4792,1.212 0.3184,0.3192 0.7224,0.48 1.2112,0.48 0.188,0 0.348,-0.019 0.48001,-0.057 0.1312,-0.037 0.272,-0.093 0.4216,-0.1688 -0.60081,0.7144 -0.90161,1.5592 -0.90161,2.536 0,1.1272 0.4136,2.0952 1.24081,2.9032 0.8256,0.8088 1.8408,1.2112 3.0432,1.2112 1.016,0 1.9256,-0.3096 2.7344,-0.9296 0.8072,-0.6192 1.304,-1.3992 1.4928,-2.3384 0.188,0.9392 0.6768,1.7184 1.4656,2.3384 0.7888,0.62 1.7096,0.9296 2.7616,0.9296 1.2016,0 2.2256,-0.4024 3.072,-1.2112 0.8448,-0.808 1.268,-1.776 1.268,-2.9032 0,-1.1632 -0.4232,-2.1416 -1.268,-2.9304 -0.8464,-0.7896 -1.8704,-1.184 -3.072,-1.184 z"
         inkscape:connector-curvature="0"
         style="fill:#f4da98;fill-opacity:1;stroke-width:0.80000007" />
      <path
         id="path5177"
         d="m 223.67637,1585.9264 c 0,-1.164 -0.4232,-2.1424 -1.268,-2.9312 -0.8464,-0.7888 -1.8704,-1.1832 -3.0728,-1.1832 -1.2024,0 -2.2168,0.3936 -3.0424,1.1832 -0.828,0.7888 -1.2416,1.7672 -1.2416,2.9312 0,1.0144 0.3392,1.9079 1.016,2.6775 0.6768,0.7704 1.5208,1.2312 2.536,1.3808 -1.0152,0.1888 -1.8592,0.6488 -2.536,1.3808 -0.6768,0.7336 -1.016,1.6264 -1.016,2.6776 0,1.1272 0.4136,2.0952 1.2416,2.9032 0.8256,0.8088 1.84,1.2112 3.0424,1.2112 1.2024,0 2.2264,-0.4024 3.0728,-1.2112 0.8448,-0.808 1.268,-1.776 1.268,-2.9032 0,-1.0504 -0.3488,-1.944 -1.0432,-2.6776 -0.6952,-0.732 -1.5696,-1.1912 -2.6208,-1.3808 1.0512,-0.1496 1.9256,-0.6104 2.6208,-1.3808 0.6944,-0.7704 1.0432,-1.6639 1.0432,-2.6775 z"
         inkscape:connector-curvature="0"
         style="fill:#f4da98;fill-opacity:1;stroke-width:0.80000007" />
      <path
         id="path5179"
         d="m 238.18356,1581.5296 h -0.732 c -1.1288,0.076 -2.0672,0.508 -2.8168,1.2952 -0.7528,0.7904 -1.1288,1.7296 -1.1288,2.8192 0,1.1272 0.424,2.0943 1.268,2.9015 0.8464,0.8088 1.8688,1.212 3.0712,1.212 1.2024,0 2.2176,-0.4032 3.0448,-1.212 0.8248,-0.8072 1.2416,-1.7743 1.2416,-2.9015 0,-1.0896 -0.3856,-2.0288 -1.156,-2.8192 -0.772,-0.7872 -1.7008,-1.2192 -2.792,-1.2952 z"
         inkscape:connector-curvature="0"
         style="fill:#f4da98;fill-opacity:1;stroke-width:0.80000007" />
      <path
         id="path5181"
         d="m 237.84436,1589.8143 c -1.2024,0 -2.2248,0.4048 -3.0712,1.212 -0.844,0.8088 -1.268,1.776 -1.268,2.9032 0,1.1272 0.424,2.0952 1.268,2.9032 0.8464,0.808 1.8688,1.212 3.0712,1.212 1.2024,0 2.2176,-0.404 3.0448,-1.212 0.8248,-0.808 1.2416,-1.776 1.2416,-2.9032 0,-1.1272 -0.4168,-2.0944 -1.2416,-2.9032 -0.8264,-0.8072 -1.8424,-1.212 -3.0448,-1.212 z"
         inkscape:connector-curvature="0"
         style="fill:#f4da98;fill-opacity:1;stroke-width:0.80000007" />
      <path
         id="path5183"
         d="m 256.63796,1581.5864 h -0.7344 c -1.1248,0.076 -2.0656,0.5072 -2.8168,1.296 -0.7512,0.7888 -1.1256,1.728 -1.1256,2.8176 0,1.1272 0.42,2.0951 1.268,2.9031 0.844,0.808 1.8672,1.2112 3.0712,1.2112 1.2032,0 2.2168,-0.4032 3.0432,-1.2112 0.8264,-0.808 1.2392,-1.7759 1.2392,-2.9031 0,-1.0896 -0.3848,-2.0288 -1.1544,-2.8176 -0.7712,-0.7888 -1.7016,-1.22 -2.7904,-1.296 z"
         inkscape:connector-curvature="0"
         style="fill:#f4da98;fill-opacity:1;stroke-width:0.80000007" />
      <path
         id="path5185"
         d="m 256.30036,1589.8711 c -1.204,0 -2.2272,0.4048 -3.0712,1.212 -0.848,0.8088 -1.268,1.776 -1.268,2.9032 0,1.1272 0.42,2.0944 1.268,2.9016 0.844,0.8088 1.8672,1.212 3.0712,1.212 1.2032,0 2.2168,-0.4032 3.0432,-1.212 0.8264,-0.8072 1.2392,-1.7744 1.2392,-2.9016 0,-1.1272 -0.4128,-2.0944 -1.2392,-2.9032 -0.8272,-0.8072 -1.84,-1.212 -3.0432,-1.212 z"
         inkscape:connector-curvature="0"
         style="fill:#f4da98;fill-opacity:1;stroke-width:0.80000007" />
      <path
         id="path5187"
         d="m 282.00117,1589.7583 c -1.20401,0 -2.22721,0.4048 -3.07121,1.2128 -0.848,0.808 -1.268,1.7744 -1.268,2.9016 0,1.1272 0.42,2.0952 1.268,2.9032 0.844,0.808 1.8672,1.212 3.07121,1.212 1.2024,0 2.2168,-0.404 3.0432,-1.212 0.8264,-0.808 1.2392,-1.776 1.2392,-2.9032 0,-1.1272 -0.4128,-2.0936 -1.2392,-2.9016 -0.8264,-0.808 -1.8408,-1.2128 -3.0432,-1.2128 z"
         inkscape:connector-curvature="0"
         style="fill:#f4da98;fill-opacity:1;stroke-width:0.80000007" />
      <path
         id="path5189"
         d="m 332.58757,1581.5864 h -0.7344 c -1.1248,0.076 -2.0656,0.5072 -2.8168,1.296 -0.7512,0.7888 -1.1248,1.728 -1.1248,2.8176 0,1.1272 0.42,2.0951 1.2672,2.9031 0.844,0.808 1.8672,1.2112 3.072,1.2112 1.2032,0 2.216,-0.4032 3.0424,-1.2112 0.8264,-0.808 1.2392,-1.7759 1.2392,-2.9031 0,-1.0896 -0.384,-2.0288 -1.1544,-2.8176 -0.7704,-0.7888 -1.7016,-1.22 -2.7904,-1.296 z"
         inkscape:connector-curvature="0"
         style="fill:#f4da98;fill-opacity:1;stroke-width:0.80000007" />
      <path
         id="path5191"
         d="m 332.24997,1589.8711 c -1.2048,0 -2.228,0.4048 -3.072,1.212 -0.8472,0.8088 -1.2672,1.776 -1.2672,2.9032 0,1.1272 0.42,2.0944 1.2672,2.9016 0.844,0.8088 1.8672,1.212 3.072,1.212 1.2032,0 2.216,-0.4032 3.0424,-1.212 0.8264,-0.8072 1.2392,-1.7744 1.2392,-2.9016 0,-1.1272 -0.4128,-2.0944 -1.2392,-2.9032 -0.8264,-0.8072 -1.8392,-1.212 -3.0424,-1.212 z"
         inkscape:connector-curvature="0"
         style="fill:#f4da98;fill-opacity:1;stroke-width:0.80000007" />
      <path
         id="path5193"
         d="m 367.60517,1590.0399 c 0,-0.4872 -0.1608,-0.8912 -0.4784,-1.212 -0.32,-0.3184 -0.7248,-0.4784 -1.2144,-0.4784 -0.4512,0 -0.808,0.112 -1.0688,0.3368 0.336,-0.3752 0.6096,-0.7976 0.816,-1.268 0.2064,-0.4688 0.3112,-0.9663 0.3112,-1.4927 0,-1.164 -0.4232,-2.1424 -1.2672,-2.9312 -0.8472,-0.7888 -1.8704,-1.1832 -3.072,-1.1832 -1.2032,0 -2.2184,0.3936 -3.0456,1.1832 -0.8272,0.7896 -1.2408,1.7672 -1.2408,2.9312 0,1.1271 0.4144,2.0951 1.2408,2.9023 0.8264,0.8088 1.8424,1.212 3.0456,1.212 1.0512,0 2.008,-0.3376 2.8752,-1.0144 -0.228,0.3008 -0.3392,0.6392 -0.3392,1.0144 0,0.4888 0.1688,0.8928 0.508,1.212 0.336,0.3192 0.7504,0.48 1.2376,0.48 0.4888,0 0.8936,-0.16 1.2144,-0.48 0.316,-0.3192 0.4776,-0.7224 0.4776,-1.212 z"
         inkscape:connector-curvature="0"
         style="fill:#f4da98;fill-opacity:1;stroke-width:0.80000007" />
      <path
         id="path5195"
         d="m 378.87557,1589.9279 c -1.0904,0 -2.0392,0.3488 -2.8472,1.0432 -0.8064,0.6952 -1.284,1.5496 -1.4344,2.5648 -0.1144,-1.016 -0.584,-1.8696 -1.4096,-2.5648 -0.8264,-0.6944 -1.784,-1.0432 -2.8752,-1.0432 -1.2016,0 -2.216,0.3944 -3.044,1.1832 -0.8248,0.7888 -1.2376,1.7672 -1.2376,2.9304 0,1.1272 0.4128,2.0952 1.2376,2.9032 0.828,0.8088 1.8424,1.2112 3.044,1.2112 1.0904,0 2.0488,-0.3472 2.8752,-1.0424 0.8248,-0.6944 1.2952,-1.5496 1.4096,-2.5648 0.1504,1.016 0.628,1.8704 1.4344,2.5648 0.808,0.6952 1.756,1.0424 2.8472,1.0424 1.2016,0 2.2264,-0.4024 3.0704,-1.2112 0.8488,-0.808 1.2688,-1.776 1.2688,-2.9032 0,-1.1632 -0.42,-2.1416 -1.2688,-2.9304 -0.844,-0.7888 -1.8696,-1.1832 -3.0704,-1.1832 z"
         inkscape:connector-curvature="0"
         style="fill:#f4da98;fill-opacity:1;stroke-width:0.80000007" />
      <path
         id="path5197"
         d="m 387.55317,1589.9279 c -1.2032,0 -2.216,0.3944 -3.0408,1.1832 -0.828,0.7888 -1.2408,1.7672 -1.2408,2.9304 0,1.1272 0.4128,2.0952 1.2408,2.9032 0.8248,0.8088 1.8376,1.2112 3.0408,1.2112 1.2032,0 2.228,-0.4024 3.072,-1.2112 0.8472,-0.808 1.272,-1.776 1.272,-2.9032 0,-1.1632 -0.4248,-2.1416 -1.272,-2.9304 -0.844,-0.7888 -1.8688,-1.1832 -3.072,-1.1832 z"
         inkscape:connector-curvature="0"
         style="fill:#f4da98;fill-opacity:1;stroke-width:0.80000007" />
      <path
         id="path5199"
         d="m 405.83637,1590.0399 c 0,-0.4872 -0.1608,-0.8912 -0.48,-1.212 -0.32,-0.3184 -0.7248,-0.4784 -1.2128,-0.4784 -0.4512,0 -0.808,0.112 -1.0704,0.3368 0.3376,-0.3752 0.6096,-0.7976 0.8168,-1.268 0.2064,-0.4688 0.3096,-0.9663 0.3096,-1.4927 0,-1.164 -0.4216,-2.1424 -1.2688,-2.9312 -0.844,-0.7888 -1.8688,-1.1832 -3.072,-1.1832 -1.2016,0 -2.2168,0.3936 -3.0424,1.1832 -0.8264,0.7888 -1.2408,1.7672 -1.2408,2.9312 0,1.1271 0.4144,2.0951 1.2408,2.9023 0.8248,0.8088 1.8408,1.212 3.0424,1.212 1.0528,0 2.0112,-0.3376 2.8752,-1.0144 -0.2248,0.3008 -0.3392,0.6392 -0.3392,1.0144 0,0.4888 0.1704,0.8928 0.5096,1.212 0.3376,0.3192 0.7512,0.48 1.2392,0.48 0.488,0 0.892,-0.16 1.2128,-0.48 0.3192,-0.3192 0.48,-0.7224 0.48,-1.212 z"
         inkscape:connector-curvature="0"
         style="fill:#f4da98;fill-opacity:1;stroke-width:0.80000007" />
      <path
         id="path5201"
         d="m 417.10837,1589.9279 c -1.0904,0 -2.0392,0.3488 -2.8472,1.0432 -0.8096,0.6952 -1.2888,1.5496 -1.4376,2.5648 -0.1128,-1.016 -0.5832,-1.8696 -1.4096,-2.5648 -0.8264,-0.6944 -1.784,-1.0432 -2.8736,-1.0432 -1.2048,0 -2.2168,0.3944 -3.044,1.1832 -0.8272,0.7888 -1.2392,1.7672 -1.2392,2.9304 0,1.1272 0.4128,2.0952 1.2392,2.9032 0.8264,0.8088 1.8392,1.2112 3.044,1.2112 1.0888,0 2.0472,-0.3472 2.8736,-1.0424 0.8264,-0.6944 1.2968,-1.5496 1.4096,-2.5648 0.1488,1.016 0.628,1.8704 1.4376,2.5648 0.808,0.6952 1.756,1.0424 2.8472,1.0424 1.2016,0 2.2248,-0.4024 3.072,-1.2112 0.8456,-0.808 1.2672,-1.776 1.2672,-2.9032 0,-1.1632 -0.4216,-2.1416 -1.2672,-2.9304 -0.8472,-0.7888 -1.8704,-1.1832 -3.072,-1.1832 z"
         inkscape:connector-curvature="0"
         style="fill:#f4da98;fill-opacity:1;stroke-width:0.80000007" />
      <path
         id="path5203"
         d="m 428.85797,1591.1111 c -0.844,-0.7888 -1.8688,-1.1832 -3.072,-1.1832 -1.2016,0 -2.2168,0.3944 -3.0424,1.1832 -0.8264,0.7888 -1.2408,1.7672 -1.2408,2.9304 0,1.1272 0.4144,2.0952 1.2408,2.9032 0.8248,0.8088 1.8408,1.2112 3.0424,1.2112 1.2032,0 2.228,-0.4024 3.072,-1.2112 0.8456,-0.808 1.2704,-1.776 1.2704,-2.9032 0,-1.1632 -0.4248,-2.1416 -1.2704,-2.9304 z"
         inkscape:connector-curvature="0"
         style="fill:#f4da98;fill-opacity:1;stroke-width:0.80000007" />
      <path
         id="path5205"
         d="m 308.73077,1590.0399 c 0,-0.4872 -0.1576,-0.8912 -0.4784,-1.212 -0.3192,-0.3184 -0.724,-0.4784 -1.2136,-0.4784 -0.4512,0 -0.8056,0.112 -1.068,0.3368 0.3352,-0.3752 0.6096,-0.7976 0.8168,-1.268 0.204,-0.4688 0.3088,-0.9663 0.3088,-1.4927 0,-1.164 -0.424,-2.1424 -1.268,-2.9312 -0.8448,-0.7888 -1.8696,-1.1832 -3.072,-1.1832 -1.2024,0 -2.216,0.3936 -3.0448,1.1832 -0.824,0.7888 -1.2408,1.7672 -1.2408,2.9312 0,1.1271 0.4168,2.0951 1.2408,2.9023 0.8288,0.8088 1.8424,1.212 3.0448,1.212 1.052,0 2.008,-0.3376 2.8752,-1.0144 -0.2272,0.3008 -0.3392,0.6392 -0.3392,1.0144 0,0.4888 0.1696,0.8928 0.5088,1.212 0.3352,0.3192 0.7512,0.48 1.2376,0.48 0.4888,0 0.8936,-0.16 1.2136,-0.48 0.3208,-0.3192 0.4784,-0.7224 0.4784,-1.212 z"
         inkscape:connector-curvature="0"
         style="fill:#f4da98;fill-opacity:1;stroke-width:0.80000007" />
      <path
         id="path5207"
         d="m 320.00357,1589.9279 c -1.0904,0 -2.0392,0.3488 -2.8488,1.0432 -0.8048,0.6952 -1.2832,1.5496 -1.4328,2.5648 -0.116,-1.016 -0.5856,-1.8696 -1.4112,-2.5648 -0.8248,-0.6944 -1.784,-1.0432 -2.8752,-1.0432 -1.2024,0 -2.216,0.3944 -3.0448,1.1832 -0.8248,0.7888 -1.2368,1.7672 -1.2368,2.9304 0,1.1272 0.412,2.0952 1.2368,2.9032 0.8288,0.8088 1.8424,1.2112 3.0448,1.2112 1.0904,0 2.0496,-0.3472 2.8752,-1.0424 0.8248,-0.6944 1.2952,-1.5496 1.4112,-2.5648 0.1504,1.016 0.628,1.8704 1.4328,2.5648 0.8096,0.6952 1.7576,1.0424 2.8488,1.0424 1.2016,0 2.2264,-0.4024 3.0704,-1.2112 0.8488,-0.808 1.2688,-1.776 1.2688,-2.9032 0,-1.1632 -0.42,-2.1416 -1.2688,-2.9304 -0.844,-0.7888 -1.8688,-1.1832 -3.0704,-1.1832 z"
         inkscape:connector-curvature="0"
         style="fill:#f4da98;fill-opacity:1;stroke-width:0.80000007" />
    </g>
  </g>
  <g
     inkscape:label="Layer 1"
     inkscape:groupmode="layer"
     id="layer1"
     transform="translate(0,-168.5)"
     style="display:inline">
    <circle
       style="fill:url(#radialGradient3008);fill-opacity:1;stroke:none;stroke-width:0.1;stroke-miterlimit:4;stroke-dasharray:none;stroke-opacity:1"
       id="path2976"
       cx="30.48"
       cy="251"
       r="20" />
    <circle
       style="fill:none;fill-opacity:1;stroke:#000000;stroke-width:6.5;stroke-miterlimit:4;stroke-dasharray:none;stroke-opacity:1"
       id="path2976-3"
       cx="30.48"
       cy="251"
       r="23.25" />
    <g
       aria-label="FL"
       style="font-style:normal;font-variant:normal;font-weight:normal;font-stretch:normal;font-size:4.23333311px;line-height:1.25;font-family:DIN;-inkscape-font-specification:DIN;text-align:center;letter-spacing:0px;word-spacing:0px;text-anchor:middle;fill:#000000;fill-opacity:1;stroke:none;stroke-width:0.26458332"
       id="text3050"
       transform="translate(-27.999996,-2.1836667e-5)">
      <path
         d="m 37.257747,188.678 v -0.3422 h -1.605138 v 2.51178 h 0.381 v -1.06186 h 1.044222 v -0.3422 H 36.033609 V 188.678 Z"
         style="font-size:3.52777767px;fill:#f4da98;fill-opacity:1;stroke-width:0.26458332"
         id="path3466"
         inkscape:connector-curvature="0" />
      <path
         d="m 39.307383,190.84758 v -0.34219 h -1.210028 v -2.16959 h -0.381 v 2.51178 z"
         style="font-size:3.52777767px;fill:#f4da98;fill-opacity:1;stroke-width:0.26458332"
         id="path3468"
         inkscape:connector-curvature="0" />
    </g>
    <text
       xml:space="preserve"
       style="font-style:normal;font-variant:normal;font-weight:normal;font-stretch:normal;font-size:4.23333311px;line-height:1.25;font-family:DIN;-inkscape-font-specification:DIN;text-align:center;letter-spacing:0px;word-spacing:0px;text-anchor:middle;fill:#000000;fill-opacity:1;stroke:none;stroke-width:0.26458332"
       x="-13.323661"
       y="186.25298"
       id="text3056"><tspan
         sodipodi:role="line"
         id="tspan3054"
         x="-13.323661"
         y="190.30992"
         style="stroke-width:0.26458332" /></text>
    <g
       aria-label="FR"
       style="font-style:normal;font-variant:normal;font-weight:normal;font-stretch:normal;font-size:4.23333311px;line-height:1.25;font-family:DIN;-inkscape-font-specification:DIN;text-align:center;letter-spacing:0px;word-spacing:0px;text-anchor:middle;fill:#000000;fill-opacity:1;stroke:none;stroke-width:0.26458332"
       id="text3050-3"
       transform="translate(-27.999989,-4.6836667e-5)">
      <path
         d="m 51.137796,188.678 v -0.3422 h -1.605139 v 2.51178 h 0.381 v -1.06186 h 1.044222 v -0.3422 H 49.913657 V 188.678 Z"
         style="font-size:3.52777767px;fill:#f4da98;fill-opacity:1;stroke-width:0.26458332"
         id="path3453"
         inkscape:connector-curvature="0" />
      <path
         d="m 53.427321,190.84758 -0.578556,-1.11125 q 0.211667,-0.06 0.356306,-0.22578 0.144638,-0.16933 0.144638,-0.44097 0,-0.15875 -0.05644,-0.29281 -0.05292,-0.13758 -0.155222,-0.23283 -0.102306,-0.0988 -0.246945,-0.15169 -0.141111,-0.0564 -0.321027,-0.0564 h -0.973667 v 2.51178 h 0.381 v -1.05833 h 0.47625 l 0.529167,1.05833 z m -0.458612,-1.77447 q 0,0.18697 -0.119944,0.28928 -0.116417,0.1023 -0.306917,0.1023 H 51.977404 V 188.678 h 0.564444 q 0.1905,0 0.306917,0.10583 0.119944,0.10231 0.119944,0.28928 z"
         style="font-size:3.52777767px;fill:#f4da98;fill-opacity:1;stroke-width:0.26458332"
         id="path3455"
         inkscape:connector-curvature="0" />
    </g>
    <text
       xml:space="preserve"
       style="font-style:normal;font-variant:normal;font-weight:normal;font-stretch:normal;font-size:4.23333311px;line-height:1.25;font-family:DIN;-inkscape-font-specification:DIN;text-align:center;letter-spacing:0px;word-spacing:0px;text-anchor:middle;fill:#000000;fill-opacity:1;stroke:none;stroke-width:0.26458332"
       x="75.028275"
       y="206.28571"
       id="text3078"><tspan
         sodipodi:role="line"
         id="tspan3076"
         x="75.028275"
         y="210.34265"
         style="stroke-width:0.26458332" /></text>
    <g
       aria-label="SL"
       style="font-style:normal;font-variant:normal;font-weight:normal;font-stretch:normal;font-size:4.23333311px;line-height:1.25;font-family:DIN;-inkscape-font-specification:DIN;text-align:center;letter-spacing:0px;word-spacing:0px;text-anchor:middle;fill:#000000;fill-opacity:1;stroke:none;stroke-width:0.26458332"
       id="text3050-3-6"
       transform="translate(3.4122765e-6,-16.000008)">
      <path
         d="m 37.324781,206.13144 q 0,-0.16228 -0.05292,-0.2928 -0.04939,-0.13053 -0.151695,-0.22225 -0.08114,-0.0706 -0.186972,-0.11289 -0.105833,-0.0459 -0.282222,-0.0741 l -0.28575,-0.0423 q -0.183444,-0.0282 -0.282222,-0.11642 -0.04939,-0.0459 -0.07408,-0.1023 -0.02117,-0.06 -0.02117,-0.13053 0,-0.16933 0.116416,-0.27869 0.119945,-0.11289 0.342195,-0.11289 0.15875,0 0.292805,0.0423 0.137584,0.0388 0.254,0.15169 l 0.243417,-0.23988 q -0.162278,-0.1517 -0.345722,-0.21873 -0.183445,-0.067 -0.433917,-0.067 -0.197555,0 -0.352778,0.0529 -0.155222,0.0529 -0.264583,0.1517 -0.105833,0.0988 -0.165805,0.23636 -0.05645,0.13405 -0.05645,0.29633 0,0.30692 0.183445,0.47978 0.169333,0.15875 0.47625,0.20108 l 0.296333,0.0423 q 0.112889,0.0176 0.169333,0.0388 0.05645,0.0212 0.105833,0.067 0.09878,0.0882 0.09878,0.26105 0,0.18345 -0.137583,0.28575 -0.134056,0.0988 -0.381,0.0988 -0.194028,0 -0.34925,-0.0494 -0.155222,-0.0529 -0.292806,-0.1905 l -0.254,0.25048 q 0.179917,0.18344 0.391584,0.25752 0.211666,0.0741 0.497416,0.0741 0.197556,0 0.363361,-0.0494 0.165806,-0.0494 0.28575,-0.14464 0.119945,-0.0953 0.186973,-0.23283 0.06703,-0.13759 0.06703,-0.31045 z"
         style="font-size:3.52777767px;fill:#f4da98;fill-opacity:1;stroke-width:0.26458332"
         id="path3443"
         inkscape:connector-curvature="0" />
      <path
         d="m 39.427331,206.84758 v -0.34219 h -1.210028 v -2.16959 h -0.381 v 2.51178 z"
         style="font-size:3.52777767px;fill:#f4da98;fill-opacity:1;stroke-width:0.26458332"
         id="path3445"
         inkscape:connector-curvature="0" />
    </g>
    <g
       aria-label="SR"
       style="font-style:normal;font-variant:normal;font-weight:normal;font-stretch:normal;font-size:4.23333311px;line-height:1.25;font-family:DIN;-inkscape-font-specification:DIN;text-align:center;letter-spacing:0px;word-spacing:0px;text-anchor:middle;fill:#000000;fill-opacity:1;stroke:none;stroke-width:0.26458332"
       id="text3050-3-9"
       transform="translate(4.5422363e-6,-16.000012)">
      <path
         d="m 51.20483,206.13144 q 0,-0.16228 -0.05292,-0.2928 -0.04939,-0.13053 -0.151694,-0.22225 -0.08114,-0.0706 -0.186972,-0.11289 -0.105834,-0.0459 -0.282222,-0.0741 l -0.28575,-0.0423 q -0.183445,-0.0282 -0.282223,-0.11642 -0.04939,-0.0459 -0.07408,-0.1023 -0.02117,-0.06 -0.02117,-0.13053 0,-0.16933 0.116417,-0.27869 0.119944,-0.11289 0.342194,-0.11289 0.15875,0 0.292806,0.0423 0.137583,0.0388 0.254,0.15169 l 0.243417,-0.23988 q -0.162278,-0.1517 -0.345723,-0.21873 -0.183444,-0.067 -0.433916,-0.067 -0.197556,0 -0.352778,0.0529 -0.155222,0.0529 -0.264583,0.1517 -0.105834,0.0988 -0.165806,0.23636 -0.05644,0.13405 -0.05644,0.29633 0,0.30692 0.183444,0.47978 0.169333,0.15875 0.47625,0.20108 l 0.296333,0.0423 q 0.112889,0.0176 0.169334,0.0388 0.05644,0.0212 0.105833,0.067 0.09878,0.0882 0.09878,0.26105 0,0.18345 -0.137583,0.28575 -0.134056,0.0988 -0.381,0.0988 -0.194028,0 -0.34925,-0.0494 -0.155223,-0.0529 -0.292806,-0.1905 l -0.254,0.25048 q 0.179917,0.18344 0.391583,0.25752 0.211667,0.0741 0.497417,0.0741 0.197556,0 0.363361,-0.0494 0.165806,-0.0494 0.28575,-0.14464 0.119945,-0.0953 0.186972,-0.23283 0.06703,-0.13759 0.06703,-0.31045 z"
         style="font-size:3.52777767px;fill:#f4da98;fill-opacity:1;stroke-width:0.26458332"
         id="path3448"
         inkscape:connector-curvature="0" />
      <path
         d="m 53.547268,206.84758 -0.578555,-1.11125 q 0.211667,-0.06 0.356305,-0.22578 0.144639,-0.16933 0.144639,-0.44097 0,-0.15875 -0.05644,-0.29281 -0.05292,-0.13758 -0.155222,-0.23283 -0.102306,-0.0988 -0.246945,-0.15169 -0.141111,-0.0564 -0.321028,-0.0564 h -0.973666 v 2.51178 h 0.381 v -1.05833 h 0.47625 l 0.529166,1.05833 z m -0.458611,-1.77447 q 0,0.18697 -0.119944,0.28928 -0.116417,0.1023 -0.306917,0.1023 H 52.097352 V 204.678 h 0.564444 q 0.1905,0 0.306917,0.10583 0.119944,0.10231 0.119944,0.28928 z"
         style="font-size:3.52777767px;fill:#f4da98;fill-opacity:1;stroke-width:0.26458332"
         id="path3450"
         inkscape:connector-curvature="0" />
    </g>
    <g
       aria-label="RESET"
       style="font-style:normal;font-variant:normal;font-weight:normal;font-stretch:normal;font-size:4.23333311px;line-height:1.25;font-family:DIN;-inkscape-font-specification:DIN;text-align:center;letter-spacing:0px;word-spacing:0px;text-anchor:middle;fill:#000000;fill-opacity:1;stroke:none;stroke-width:0.26458332"
       id="text3050-3-9-0"
       transform="translate(1.4799982,1.4708268)">
      <path
         d="m 46.736815,278.96423 -0.578555,-1.11125 q 0.211666,-0.06 0.356305,-0.22577 0.144639,-0.16934 0.144639,-0.44098 0,-0.15875 -0.05644,-0.2928 -0.05292,-0.13759 -0.155222,-0.23284 -0.102306,-0.0988 -0.246945,-0.15169 -0.141111,-0.0564 -0.321028,-0.0564 h -0.973666 v 2.51177 h 0.381 v -1.05833 h 0.47625 l 0.529166,1.05833 z m -0.458611,-1.77447 q 0,0.18697 -0.119944,0.28928 -0.116417,0.1023 -0.306917,0.1023 h -0.564444 v -0.78669 h 0.564444 q 0.1905,0 0.306917,0.10583 0.119944,0.10231 0.119944,0.28928 z"
         style="font-size:3.52777767px;fill:#f4da98;fill-opacity:1;stroke-width:0.26458332"
         id="path3509"
         inkscape:connector-curvature="0" />
      <path
         d="m 48.821728,278.96423 v -0.34219 h -1.224139 v -0.75495 h 1.044222 v -0.33866 h -1.044222 v -0.73378 h 1.224139 v -0.34219 h -1.605139 v 2.51177 z"
         style="font-size:3.52777767px;fill:#f4da98;fill-opacity:1;stroke-width:0.26458332"
         id="path3511"
         inkscape:connector-curvature="0" />
      <path
         d="m 50.913696,278.24809 q 0,-0.16227 -0.05292,-0.2928 -0.04939,-0.13053 -0.151694,-0.22225 -0.08114,-0.0706 -0.186973,-0.11289 -0.105833,-0.0459 -0.282222,-0.0741 l -0.28575,-0.0423 q -0.183444,-0.0282 -0.282222,-0.11641 -0.04939,-0.0459 -0.07408,-0.10231 -0.02117,-0.06 -0.02117,-0.13053 0,-0.16933 0.116417,-0.27869 0.119944,-0.11289 0.342194,-0.11289 0.15875,0 0.292806,0.0423 0.137583,0.0388 0.254,0.1517 l 0.243416,-0.23989 q -0.162278,-0.1517 -0.345722,-0.21872 -0.183444,-0.067 -0.433917,-0.067 -0.197555,0 -0.352777,0.0529 -0.155223,0.0529 -0.264584,0.15169 -0.105833,0.0988 -0.165805,0.23636 -0.05644,0.13406 -0.05644,0.29633 0,0.30692 0.183445,0.47978 0.169333,0.15875 0.47625,0.20109 l 0.296333,0.0423 q 0.112889,0.0176 0.169333,0.0388 0.05645,0.0212 0.105834,0.067 0.09878,0.0882 0.09878,0.26106 0,0.18344 -0.137583,0.28575 -0.134055,0.0988 -0.381,0.0988 -0.194028,0 -0.34925,-0.0494 -0.155222,-0.0529 -0.292805,-0.1905 l -0.254,0.25047 q 0.179916,0.18344 0.391583,0.25753 0.211667,0.0741 0.497417,0.0741 0.197555,0 0.363361,-0.0494 0.165805,-0.0494 0.28575,-0.14464 0.119944,-0.0952 0.186972,-0.23283 0.06703,-0.13758 0.06703,-0.31045 z"
         style="font-size:3.52777767px;fill:#f4da98;fill-opacity:1;stroke-width:0.26458332"
         id="path3513"
         inkscape:connector-curvature="0" />
      <path
         d="m 53.030356,278.96423 v -0.34219 h -1.224139 v -0.75495 h 1.044223 v -0.33866 h -1.044223 v -0.73378 h 1.224139 v -0.34219 h -1.605139 v 2.51177 z"
         style="font-size:3.52777767px;fill:#f4da98;fill-opacity:1;stroke-width:0.26458332"
         id="path3515"
         inkscape:connector-curvature="0" />
      <path
         d="m 55.094101,276.79465 v -0.34219 h -1.763889 v 0.34219 h 0.691445 v 2.16958 h 0.381 v -2.16958 z"
         style="font-size:3.52777767px;fill:#f4da98;fill-opacity:1;stroke-width:0.26458332"
         id="path3517"
         inkscape:connector-curvature="0" />
    </g>
    <path
       style="display:inline;fill:#f4da98;fill-opacity:1;stroke:none;stroke-width:0;stroke-miterlimit:4;stroke-dasharray:none;stroke-opacity:1"
       inkscape:transform-center-x="7.4234112"
       inkscape:transform-center-y="5.2919366"
       d="m 42.980001,197 a 5.5000001,5.5000001 0 0 1 -5.500001,5.5 5.5000001,5.5000001 0 0 1 -5.5,-5.5 5.5000001,5.5000001 0 0 1 5.5,-5.5 5.5000001,5.5000001 0 0 1 5.500001,5.5 z"
       id="path4964-2-8"
       inkscape:connector-curvature="0" />
    <path
       style="display:inline;fill:#f4da98;fill-opacity:1;stroke:none;stroke-width:0;stroke-miterlimit:4;stroke-dasharray:none;stroke-opacity:1"
       inkscape:transform-center-x="7.4234112"
       inkscape:transform-center-y="5.2919366"
       d="m 56.98,213 a 5.5000001,5.5000001 0 0 1 -5.5,5.5 5.5000001,5.5000001 0 0 1 -5.5,-5.5 5.5000001,5.5000001 0 0 1 5.5,-5.5 5.5000001,5.5000001 0 0 1 5.5,5.5 z"
       id="path4964-2-8-3"
       inkscape:connector-curvature="0" />
    <path
       style="display:inline;fill:#f4da98;fill-opacity:1;stroke:none;stroke-width:0;stroke-miterlimit:4;stroke-dasharray:none;stroke-opacity:1"
       inkscape:transform-center-x="7.4234112"
       inkscape:transform-center-y="5.2919366"
       d="m 14.98,197 a 5.5000001,5.5000001 0 0 1 -5.5000008,5.5 5.5000001,5.5000001 0 0 1 -5.5,-5.5 5.5000001,5.5000001 0 0 1 5.5,-5.5 A 5.5000001,5.5000001 0 0 1 14.98,197 Z"
       id="path4964-2-8-6"
       inkscape:connector-curvature="0" />
    <path
       style="display:inline;fill:#f4da98;fill-opacity:1;stroke:none;stroke-width:0;stroke-miterlimit:4;stroke-dasharray:none;stroke-opacity:1"
       inkscape:transform-center-x="7.4234112"
       inkscape:transform-center-y="5.2919366"
       d="m 28.98,197 a 5.5000001,5.5000001 0 0 1 -5.5,5.5 5.5000001,5.5000001 0 0 1 -5.5,-5.5 5.5000001,5.5000001 0 0 1 5.5,-5.5 5.5000001,5.5000001 0 0 1 5.5,5.5 z"
       id="path4964-2-8-0"
       inkscape:connector-curvature="0" />
    <g
       aria-label="V204 Quad Panner"
       transform="translate(0,168.5)"
       style="font-style:normal;font-variant:normal;font-weight:normal;font-stretch:normal;font-size:4.23333311px;line-height:1.25;font-family:DIN;-inkscape-font-specification:DIN;text-align:center;letter-spacing:0px;word-spacing:0px;text-anchor:middle;display:inline;fill:#000000;fill-opacity:1;stroke:none;stroke-width:0.26458332"
       id="text2817">
      <path
         d="m 15.483443,3.4858659 h -0.4826 L 14.306576,5.6787324 13.61231,3.4858659 h -0.474133 l 0.990599,3.0141331 h 0.3556 z"
         style="fill:#f4da98;fill-opacity:1;stroke-width:0.26458332"
         id="path3480" />
      <path
         d="M 17.523906,6.499999 V 6.1147657 H 16.29624 l 0.944033,-1.1556999 q 0.1397,-0.1693333 0.211666,-0.3090333 0.07197,-0.1439333 0.07197,-0.3429 0,-0.1947333 -0.0635,-0.3513667 -0.0635,-0.1566333 -0.1778,-0.2666999 -0.1143,-0.1100667 -0.275166,-0.1693334 -0.160867,-0.059267 -0.3556,-0.059267 -0.1905,0 -0.351367,0.0635 -0.160867,0.059267 -0.2794,0.1693333 -0.1143,0.1100667 -0.182033,0.2709333 -0.0635,0.1566333 -0.0635,0.3471333 h 0.4318 q 0,-0.127 0.0381,-0.2159 0.0381,-0.0889 0.09737,-0.1439333 0.0635,-0.055033 0.143934,-0.080433 0.08043,-0.0254 0.1651,-0.0254 0.211666,0 0.325966,0.127 0.1143,0.127 0.1143,0.3302 0,0.1143 -0.0381,0.2074333 -0.0381,0.0889 -0.122766,0.1947333 L 15.771306,6.1147657 V 6.499999 Z"
         style="fill:#f4da98;fill-opacity:1;stroke-width:0.26458332"
         id="path3482" />
      <path
         d="M 19.759102,5.6617991 V 4.3240658 q 0,-0.2032 -0.07197,-0.3598333 -0.06773,-0.1608666 -0.186266,-0.2709333 -0.118533,-0.1143 -0.2794,-0.1735667 -0.156633,-0.059267 -0.334433,-0.059267 -0.1778,0 -0.338667,0.059267 -0.156633,0.059267 -0.275167,0.1735667 -0.118533,0.1100667 -0.186266,0.2709333 -0.06773,0.1566333 -0.06773,0.3598333 v 1.3377333 q 0,0.2032 0.06773,0.3640666 0.06773,0.1566334 0.186266,0.2709334 0.118534,0.1100666 0.275167,0.1693333 0.160867,0.059267 0.338667,0.059267 0.1778,0 0.334433,-0.059267 0.160867,-0.059267 0.2794,-0.1693333 0.118533,-0.1143 0.186266,-0.2709334 0.07197,-0.1608666 0.07197,-0.3640666 z m -0.4318,-0.0127 q 0,0.2201333 -0.118533,0.3556 -0.1143,0.1354666 -0.321733,0.1354666 -0.207434,0 -0.321734,-0.1354666 -0.1143,-0.1354667 -0.1143,-0.3556 V 4.3367658 q 0,-0.2201333 0.1143,-0.3556 0.1143,-0.1354666 0.321734,-0.1354666 0.207433,0 0.321733,0.1354666 0.118533,0.1354667 0.118533,0.3556 z"
         style="fill:#f4da98;fill-opacity:1;stroke-width:0.26458332"
         id="path3484" />
      <path
         d="M 22.125531,6.0470324 V 5.6448658 H 21.803797 V 4.9421325 h -0.4191 v 0.7027333 h -0.749299 l 1.058333,-2.1589999 h -0.465667 l -1.062566,2.1589999 v 0.4021666 h 1.219199 V 6.499999 h 0.4191 V 6.0470324 Z"
         style="fill:#f4da98;fill-opacity:1;stroke-width:0.26458332"
         id="path3486" />
      <path
         d="m 25.842393,6.3814657 -0.296334,-0.2921 q 0.0762,-0.1016 0.1143,-0.2116666 0.0381,-0.1143 0.05503,-0.2455333 0.02117,-0.1312334 0.02117,-0.2878667 0.0042,-0.1608667 0.0042,-0.3513666 0,-0.2159 -0.0042,-0.3894667 -0.0042,-0.1778 -0.02963,-0.3217333 -0.0254,-0.1439333 -0.08467,-0.2667 -0.05927,-0.1227666 -0.169333,-0.2328333 -0.156633,-0.1566333 -0.3556,-0.2370667 -0.198967,-0.084667 -0.440267,-0.084667 -0.2413,0 -0.440266,0.084667 -0.194734,0.080433 -0.351367,0.2370667 -0.110067,0.1100667 -0.169333,0.2328333 -0.05927,0.1227667 -0.0889,0.2667 -0.0254,0.1439333 -0.02963,0.3217333 -0.0042,0.1735667 -0.0042,0.3894667 0,0.2158999 0.0042,0.3936999 0.0042,0.1735667 0.02963,0.3175 0.02963,0.1439333 0.0889,0.2667 0.05927,0.1227667 0.169333,0.2328333 0.156633,0.1566334 0.351367,0.2413 0.198966,0.080433 0.440266,0.080433 0.1778,0 0.338667,-0.046567 0.160867,-0.0508 0.2921,-0.1439333 l 0.300567,0.3005666 z m -0.5588,-1.3885332 q 0,0.2920999 -0.01693,0.4614333 -0.0127,0.1693333 -0.07197,0.2836333 l -0.2921,-0.2921 -0.254,0.254 0.3175,0.3175 q -0.135467,0.097367 -0.309034,0.097367 -0.135466,0 -0.254,-0.0508 -0.1143,-0.0508 -0.194733,-0.1354666 -0.05503,-0.059267 -0.09313,-0.127 -0.03387,-0.071967 -0.05503,-0.1735667 -0.01693,-0.1058333 -0.0254,-0.254 -0.0042,-0.1524 -0.0042,-0.3809999 0,-0.2286 0.0042,-0.3767667 0.0085,-0.1524 0.0254,-0.254 0.02117,-0.1058333 0.05503,-0.1735666 0.0381,-0.071967 0.09313,-0.1312334 0.08043,-0.084667 0.194733,-0.1354666 0.118534,-0.0508 0.254,-0.0508 0.135467,0 0.249767,0.0508 0.118533,0.0508 0.198967,0.1354666 0.05503,0.059267 0.0889,0.1312334 0.0381,0.067733 0.05503,0.1735666 0.02117,0.1016 0.0254,0.254 0.0085,0.1481667 0.0085,0.3767667 z"
         style="fill:#f4da98;fill-opacity:1;stroke-width:0.26458332"
         id="path3488" />
      <path
         d="M 28.086058,6.499999 V 4.3536992 h -0.431799 v 1.3080999 q 0,0.1227667 -0.0381,0.2159 -0.03387,0.0889 -0.09313,0.1481666 -0.05927,0.059267 -0.143933,0.0889 -0.08043,0.0254 -0.169333,0.0254 -0.182034,0 -0.309034,-0.1143 -0.122766,-0.1143 -0.122766,-0.3640666 V 4.3536992 h -0.4318 v 1.3715999 q 0,0.1820333 0.04657,0.3344333 0.04657,0.1481667 0.169334,0.2709333 0.09737,0.093133 0.2286,0.1439333 0.135466,0.0508 0.300566,0.0508 0.160867,0 0.309034,-0.059267 0.1524,-0.059267 0.262466,-0.1820333 V 6.499999 Z"
         style="fill:#f4da98;fill-opacity:1;stroke-width:0.26458332"
         id="path3490" />
      <path
         d="M 30.350887,6.499999 V 5.0648991 q 0,-0.7365999 -0.884766,-0.7365999 -0.2667,0 -0.4445,0.067733 -0.173567,0.0635 -0.325967,0.2413 l 0.283633,0.2667 q 0.0889,-0.1143 0.1905,-0.1608667 0.1016,-0.046567 0.2794,-0.046567 0.254,0 0.359833,0.1016 0.110067,0.097367 0.110067,0.3005667 v 0.1524 h -0.567266 q -0.372534,0 -0.5588,0.1735666 -0.182034,0.1735667 -0.182034,0.4445 0,0.2836333 0.169334,0.4614333 0.09737,0.097367 0.232833,0.1481667 0.1397,0.046567 0.3429,0.046567 0.198967,0 0.325966,-0.0508 0.127,-0.0508 0.245534,-0.1693333 V 6.499999 Z m -0.4318,-0.7746999 q 0,0.2243666 -0.09313,0.3175 -0.08467,0.084667 -0.182034,0.1058333 -0.09737,0.016933 -0.220133,0.016933 -0.2032,0 -0.300566,-0.0762 -0.09313,-0.080433 -0.09313,-0.2286 0,-0.1481666 0.09737,-0.2285999 0.09737,-0.080433 0.287867,-0.080433 h 0.503766 z"
         style="fill:#f4da98;fill-opacity:1;stroke-width:0.26458332"
         id="path3492" />
      <path
         d="M 32.670748,6.499999 V 3.4858659 h -0.4318 v 1.0837332 q -0.118533,-0.1396999 -0.254,-0.1904999 -0.135467,-0.0508 -0.309033,-0.0508 -0.160867,0 -0.296334,0.0508 -0.135466,0.0508 -0.224366,0.1397 -0.08043,0.080433 -0.131234,0.1862666 -0.04657,0.1058333 -0.07197,0.2243667 -0.0254,0.1185333 -0.03387,0.2455333 -0.0042,0.127 -0.0042,0.2497666 0,0.1227667 0.0042,0.2497667 0.0085,0.127 0.03387,0.2497666 0.0254,0.1185334 0.07197,0.2243667 0.0508,0.1058333 0.131234,0.1862667 0.0889,0.0889 0.224366,0.1396999 0.1397,0.0508 0.300567,0.0508 0.1778,0 0.309033,-0.0508 0.135467,-0.055033 0.258234,-0.2031999 V 6.499999 Z m -0.4318,-1.0752666 q 0,0.1439334 -0.01693,0.2751667 -0.0127,0.127 -0.05927,0.2286 -0.04657,0.097367 -0.135467,0.1566333 -0.0889,0.055033 -0.232833,0.055033 -0.148167,0 -0.237067,-0.055033 -0.08467,-0.059267 -0.135466,-0.1566333 -0.04657,-0.1016 -0.0635,-0.2286 -0.0127,-0.1312333 -0.0127,-0.2751667 0,-0.1439333 0.0127,-0.2709333 0.01693,-0.1312333 0.0635,-0.2286 0.0508,-0.097367 0.135466,-0.1524 0.0889,-0.059267 0.237067,-0.059267 0.143933,0 0.232833,0.059267 0.0889,0.055033 0.135467,0.1524 0.04657,0.097367 0.05927,0.2286 0.01693,0.127 0.01693,0.2709333 z"
         style="fill:#f4da98;fill-opacity:1;stroke-width:0.26458332"
         id="path3494" />
      <path
         d="m 36.531546,4.4002658 q 0,-0.1947333 -0.06773,-0.3640666 -0.06773,-0.1693333 -0.194733,-0.2878667 -0.127,-0.1227666 -0.3048,-0.1905 -0.1778,-0.071967 -0.397933,-0.071967 h -1.143 V 6.499999 h 0.4572 V 5.3146658 h 0.6858 q 0.220133,0 0.397933,-0.067733 0.1778,-0.071967 0.3048,-0.1904999 0.127,-0.1227667 0.194733,-0.2878667 0.06773,-0.1693333 0.06773,-0.3683 z m -0.4572,0 q 0,0.2413 -0.148167,0.3725333 -0.143933,0.127 -0.385233,0.127 h -0.6604 V 3.8964992 h 0.6604 q 0.2413,0 0.385233,0.1312333 0.148167,0.1312333 0.148167,0.3725333 z"
         style="fill:#f4da98;fill-opacity:1;stroke-width:0.26458332"
         id="path3496" />
      <path
         d="M 38.572009,6.499999 V 5.0648991 q 0,-0.7365999 -0.884767,-0.7365999 -0.2667,0 -0.4445,0.067733 -0.173566,0.0635 -0.325966,0.2413 l 0.283633,0.2667 q 0.0889,-0.1143 0.1905,-0.1608667 0.1016,-0.046567 0.2794,-0.046567 0.254,0 0.359833,0.1016 0.110067,0.097367 0.110067,0.3005667 v 0.1524 h -0.567267 q -0.372533,0 -0.5588,0.1735666 -0.182033,0.1735667 -0.182033,0.4445 0,0.2836333 0.169333,0.4614333 0.09737,0.097367 0.232834,0.1481667 0.1397,0.046567 0.3429,0.046567 0.198966,0 0.325966,-0.0508 0.127,-0.0508 0.245534,-0.1693333 V 6.499999 Z m -0.4318,-0.7746999 q 0,0.2243666 -0.09313,0.3175 -0.08467,0.084667 -0.182034,0.1058333 -0.09737,0.016933 -0.220133,0.016933 -0.2032,0 -0.300567,-0.0762 -0.09313,-0.080433 -0.09313,-0.2286 0,-0.1481666 0.09737,-0.2285999 0.09737,-0.080433 0.287866,-0.080433 h 0.503767 z"
         style="fill:#f4da98;fill-opacity:1;stroke-width:0.26458332"
         id="path3498" />
      <path
         d="M 40.976537,6.499999 V 5.1283991 q 0,-0.1820333 -0.04657,-0.3302 -0.04657,-0.1524 -0.169334,-0.2751666 -0.09737,-0.093133 -0.232833,-0.1439333 -0.131233,-0.0508 -0.296333,-0.0508 -0.160867,0 -0.313267,0.059267 -0.148166,0.059267 -0.258233,0.1820333 V 4.3536992 H 39.236638 V 6.499999 h 0.4318 V 5.1918991 q 0,-0.2455333 0.131233,-0.3598333 0.131233,-0.1185333 0.313266,-0.1185333 0.182034,0 0.3048,0.1143 0.127,0.1143 0.127,0.3640666 V 6.499999 Z"
         style="fill:#f4da98;fill-opacity:1;stroke-width:0.26458332"
         id="path3500" />
      <path
         d="M 43.381065,6.499999 V 5.1283991 q 0,-0.1820333 -0.04657,-0.3302 -0.04657,-0.1524 -0.169333,-0.2751666 -0.09737,-0.093133 -0.232833,-0.1439333 -0.131234,-0.0508 -0.296334,-0.0508 -0.160866,0 -0.313266,0.059267 -0.148167,0.059267 -0.258233,0.1820333 V 4.3536992 H 41.641165 V 6.499999 h 0.4318 V 5.1918991 q 0,-0.2455333 0.131234,-0.3598333 0.131233,-0.1185333 0.313266,-0.1185333 0.182033,0 0.3048,0.1143 0.127,0.1143 0.127,0.3640666 V 6.499999 Z"
         style="fill:#f4da98;fill-opacity:1;stroke-width:0.26458332"
         id="path3502" />
      <path
         d="m 45.755961,5.5517324 v -0.1905 q 0,-0.2285999 -0.0635,-0.4190999 -0.05927,-0.1905 -0.1778,-0.3259667 -0.1143,-0.1354666 -0.283633,-0.2116666 -0.169333,-0.0762 -0.385233,-0.0762 -0.414867,0 -0.664634,0.2878666 -0.245533,0.2836333 -0.245533,0.8085666 0,0.3048 0.0762,0.5164667 0.0762,0.2116666 0.2032,0.3429 0.131233,0.127 0.3048,0.1862666 0.1778,0.055033 0.381,0.055033 0.1397,0 0.249767,-0.021167 0.1143,-0.021167 0.207433,-0.0635 0.09737,-0.042333 0.1778,-0.1016 0.08467,-0.0635 0.169333,-0.1481667 L 45.429995,5.9327324 q -0.1143,0.1143 -0.2286,0.1693333 -0.110067,0.0508 -0.2921,0.0508 -0.2667,0 -0.4064,-0.1608666 -0.1397,-0.1608667 -0.1397,-0.4402667 z M 45.328395,5.2511658 h -0.9652 q 0.0042,-0.097367 0.0127,-0.1566333 0.0085,-0.0635 0.04233,-0.1354667 0.0508,-0.1227667 0.160867,-0.1947333 0.1143,-0.0762 0.2667,-0.0762 0.1524,0 0.262466,0.0762 0.110067,0.071967 0.160867,0.1947333 0.03387,0.071967 0.04233,0.1354667 0.0127,0.059267 0.01693,0.1566333 z"
         style="fill:#f4da98;fill-opacity:1;stroke-width:0.26458332"
         id="path3504" />
      <path
         d="M 47.834526,4.5314991 Q 47.72446,4.4214325 47.601693,4.3748658 q -0.122767,-0.046567 -0.2794,-0.046567 -0.182033,0 -0.334433,0.071967 -0.1524,0.071967 -0.237067,0.1862667 V 4.3536992 H 46.32746 V 6.499999 h 0.4318 V 5.1961324 q 0,-0.2243666 0.122766,-0.3513666 0.127,-0.1312333 0.3048,-0.1312333 0.110067,0 0.1778,0.0381 0.07197,0.033867 0.143934,0.1058333 z"
         style="fill:#f4da98;fill-opacity:1;stroke-width:0.26458332"
         id="path3506" />
    </g>
    <g
       aria-label="OUTS"
       style="font-style:normal;font-variant:normal;font-weight:normal;font-stretch:normal;font-size:4.23333311px;line-height:1.25;font-family:DIN;-inkscape-font-specification:DIN;text-align:center;letter-spacing:0px;word-spacing:0px;text-anchor:middle;display:inline;fill:#000000;fill-opacity:1;stroke:none;stroke-width:0.26458332"
       id="text3050-7"
       transform="translate(-13.879202,3.7039397)">
      <path
         d="m 42.016726,178.47942 q 0,-0.17992 -0.0035,-0.32456 -0.0035,-0.14817 -0.02469,-0.26811 -0.02117,-0.11994 -0.07056,-0.22225 -0.04939,-0.10231 -0.141111,-0.19403 -0.130528,-0.13053 -0.296333,-0.19755 -0.165806,-0.0706 -0.366889,-0.0706 -0.201083,0 -0.366889,0.0706 -0.162278,0.067 -0.292806,0.19755 -0.09172,0.0917 -0.141111,0.19403 -0.04939,0.10231 -0.07408,0.22225 -0.02117,0.11994 -0.02469,0.26811 -0.0035,0.14464 -0.0035,0.32456 0,0.17991 0.0035,0.32808 0.0035,0.14464 0.02469,0.26458 0.02469,0.11995 0.07408,0.22225 0.04939,0.10231 0.141111,0.19403 0.130528,0.13053 0.292806,0.20108 0.165806,0.067 0.366889,0.067 0.201083,0 0.366889,-0.067 0.165805,-0.0705 0.296333,-0.20108 0.09172,-0.0917 0.141111,-0.19403 0.04939,-0.1023 0.07056,-0.22225 0.02117,-0.11994 0.02469,-0.26458 0.0035,-0.14817 0.0035,-0.32808 z m -0.381,0 q 0,0.1905 -0.0071,0.3175 -0.0035,0.12347 -0.02117,0.21166 -0.01411,0.0847 -0.04586,0.14464 -0.02822,0.0564 -0.07408,0.10584 -0.06703,0.0705 -0.165805,0.11288 -0.09525,0.0423 -0.208139,0.0423 -0.112889,0 -0.211667,-0.0423 -0.09525,-0.0423 -0.162278,-0.11288 -0.04586,-0.0494 -0.07761,-0.10584 -0.02822,-0.06 -0.04586,-0.14464 -0.01411,-0.0882 -0.02117,-0.21166 -0.0035,-0.127 -0.0035,-0.3175 0,-0.1905 0.0035,-0.31398 0.0071,-0.127 0.02117,-0.21166 0.01764,-0.0882 0.04586,-0.14464 0.03175,-0.06 0.07761,-0.10936 0.06703,-0.0706 0.162278,-0.11289 0.09878,-0.0423 0.211667,-0.0423 0.112889,0 0.208139,0.0423 0.09878,0.0423 0.165805,0.11289 0.04586,0.0494 0.07408,0.10936 0.03175,0.0564 0.04586,0.14464 0.01764,0.0847 0.02117,0.21166 0.0071,0.12348 0.0071,0.31398 z"
         style="font-size:3.52777767px;fill:#f4da98;fill-opacity:1;stroke-width:0.26458332"
         id="path3471"
         inkscape:connector-curvature="0" />
      <path
         d="m 44.345059,178.88864 v -1.66511 h -0.381 v 1.64747 q 0,0.254 -0.144639,0.39864 -0.141111,0.14464 -0.377472,0.14464 -0.236361,0 -0.377472,-0.14464 -0.141112,-0.14464 -0.141112,-0.39864 v -1.64747 h -0.381 v 1.66511 q 0,0.19403 0.06703,0.3563 0.07056,0.15875 0.1905,0.27164 0.119945,0.11289 0.28575,0.17639 0.165806,0.0635 0.356306,0.0635 0.1905,0 0.356305,-0.0635 0.165806,-0.0635 0.28575,-0.17639 0.123473,-0.11289 0.1905,-0.27164 0.07056,-0.16227 0.07056,-0.3563 z"
         style="font-size:3.52777767px;fill:#f4da98;fill-opacity:1;stroke-width:0.26458332"
         id="path3473"
         inkscape:connector-curvature="0" />
      <path
         d="m 46.504056,177.56572 v -0.34219 h -1.763888 v 0.34219 h 0.691444 v 2.16959 h 0.381 v -2.16959 z"
         style="font-size:3.52777767px;fill:#f4da98;fill-opacity:1;stroke-width:0.26458332"
         id="path3475"
         inkscape:connector-curvature="0" />
      <path
         d="m 48.507832,179.01917 q 0,-0.16228 -0.05292,-0.29281 -0.04939,-0.13053 -0.151694,-0.22225 -0.08114,-0.0705 -0.186972,-0.11289 -0.105834,-0.0459 -0.282222,-0.0741 l -0.28575,-0.0423 q -0.183445,-0.0282 -0.282223,-0.11642 -0.04939,-0.0459 -0.07408,-0.10231 -0.02117,-0.06 -0.02117,-0.13052 0,-0.16934 0.116417,-0.2787 0.119944,-0.11289 0.342194,-0.11289 0.15875,0 0.292806,0.0423 0.137583,0.0388 0.254,0.15169 l 0.243417,-0.23989 q -0.162278,-0.15169 -0.345723,-0.21872 -0.183444,-0.067 -0.433916,-0.067 -0.197556,0 -0.352778,0.0529 -0.155222,0.0529 -0.264583,0.15169 -0.105834,0.0988 -0.165806,0.23636 -0.05644,0.13406 -0.05644,0.29634 0,0.30691 0.183444,0.47977 0.169333,0.15875 0.47625,0.20109 l 0.296333,0.0423 q 0.112889,0.0176 0.169334,0.0388 0.05644,0.0212 0.105833,0.067 0.09878,0.0882 0.09878,0.26106 0,0.18344 -0.137583,0.28575 -0.134056,0.0988 -0.381,0.0988 -0.194028,0 -0.34925,-0.0494 -0.155223,-0.0529 -0.292806,-0.1905 l -0.254,0.25047 q 0.179917,0.18345 0.391583,0.25753 0.211667,0.0741 0.497417,0.0741 0.197556,0 0.363361,-0.0494 0.165806,-0.0494 0.28575,-0.14464 0.119945,-0.0953 0.186972,-0.23283 0.06703,-0.13758 0.06703,-0.31044 z"
         style="font-size:3.52777767px;fill:#f4da98;fill-opacity:1;stroke-width:0.26458332"
         id="path3477"
         inkscape:connector-curvature="0" />
    </g>
    <path
       style="display:inline;fill:#f4da98;fill-opacity:1;stroke:none;stroke-width:0;stroke-miterlimit:4;stroke-dasharray:none;stroke-opacity:1"
       inkscape:transform-center-x="7.4234112"
       inkscape:transform-center-y="5.2919366"
       d="m 56.98,197 a 5.5000001,5.5000001 0 0 1 -5.5,5.5 5.5000001,5.5000001 0 0 1 -5.5,-5.5 5.5000001,5.5000001 0 0 1 5.5,-5.5 5.5000001,5.5000001 0 0 1 5.5,5.5 z"
       id="path4964-2-8-2"
       inkscape:connector-curvature="0" />
    <text
       xml:space="preserve"
       style="font-style:normal;font-variant:normal;font-weight:normal;font-stretch:normal;font-size:4.23333311px;line-height:1.25;font-family:DIN;-inkscape-font-specification:DIN;text-align:center;letter-spacing:0px;word-spacing:0px;text-anchor:middle;fill:#000000;fill-opacity:1;stroke:none;stroke-width:0.26458332"
       x="16.111235"
       y="206.04947"
       id="text3332"><tspan
         sodipodi:role="line"
         id="tspan3330"
         x="16.111235"
         y="210.10641"
         style="stroke-width:0.26458332" /></text>
    <g
       aria-label="MULTI"
       style="font-style:normal;font-variant:normal;font-weight:normal;font-stretch:normal;font-size:4.23333311px;line-height:1.25;font-family:DIN;-inkscape-font-specification:DIN;text-align:center;letter-spacing:0px;word-spacing:0px;text-anchor:middle;display:inline;fill:#000000;fill-opacity:1;stroke:none;stroke-width:0.26458332"
       id="text3050-3-6-2"
       transform="translate(28,-1.8136667e-5)">
      <path
         d="m 21.021146,206.83699 v -2.51178 h -0.381 l -0.719667,1.56281 -0.733777,-1.56281 h -0.381 v 2.51178 h 0.381 v -1.67922 l 0.592666,1.22414 h 0.282222 l 0.578556,-1.22414 v 1.67922 z"
         style="font-size:3.52777767px;fill:#f4da98;fill-opacity:1;stroke-width:0.26458332"
         id="path3432"
         inkscape:connector-curvature="0" />
      <path
         d="m 23.437673,205.99032 v -1.66511 h -0.381 v 1.64747 q 0,0.254 -0.144639,0.39864 -0.141111,0.14464 -0.377472,0.14464 -0.236362,0 -0.377473,-0.14464 -0.141111,-0.14464 -0.141111,-0.39864 v -1.64747 h -0.381 v 1.66511 q 0,0.19403 0.06703,0.35631 0.07056,0.15875 0.1905,0.27164 0.119944,0.11289 0.28575,0.17639 0.165806,0.0635 0.356306,0.0635 0.1905,0 0.356305,-0.0635 0.165806,-0.0635 0.28575,-0.17639 0.123472,-0.11289 0.1905,-0.27164 0.07056,-0.16228 0.07056,-0.35631 z"
         style="font-size:3.52777767px;fill:#f4da98;fill-opacity:1;stroke-width:0.26458332"
         id="path3434"
         inkscape:connector-curvature="0" />
      <path
         d="m 25.646059,206.83699 v -0.34219 h -1.210028 v -2.16959 h -0.381 v 2.51178 z"
         style="font-size:3.52777767px;fill:#f4da98;fill-opacity:1;stroke-width:0.26458332"
         id="path3436"
         inkscape:connector-curvature="0" />
      <path
         d="m 27.339383,204.66741 v -0.3422 h -1.763888 v 0.3422 h 0.691444 v 2.16958 h 0.381 v -2.16958 z"
         style="font-size:3.52777767px;fill:#f4da98;fill-opacity:1;stroke-width:0.26458332"
         id="path3438"
         inkscape:connector-curvature="0" />
      <path
         d="m 28.154299,206.83699 v -2.51178 h -0.381 v 2.51178 z"
         style="font-size:3.52777767px;fill:#f4da98;fill-opacity:1;stroke-width:0.26458332"
         id="path3440"
         inkscape:connector-curvature="0" />
    </g>
    <g
       aria-label="IN"
       style="font-style:normal;font-variant:normal;font-weight:normal;font-stretch:normal;font-size:4.23333311px;line-height:1.25;font-family:DIN;-inkscape-font-specification:DIN;text-align:center;letter-spacing:0px;word-spacing:0px;text-anchor:middle;display:inline;fill:#000000;fill-opacity:1;stroke:none;stroke-width:0.26458332"
       id="text3050-3-6-9"
       transform="translate(-13.999999,15.999975)">
      <path
         d="m 22.396973,190.84758 v -2.51178 h -0.381 v 2.51178 z"
         style="font-size:3.52777767px;fill:#f4da98;fill-opacity:1;stroke-width:0.26458332"
         id="path3461"
         inkscape:connector-curvature="0" />
      <path
         d="m 24.944024,190.84758 v -2.51178 h -0.381 v 1.76389 l -1.160639,-1.76389 h -0.34925 v 2.51178 h 0.381 v -1.76742 l 1.160639,1.76742 z"
         style="font-size:3.52777767px;fill:#f4da98;fill-opacity:1;stroke-width:0.26458332"
         id="path3463"
         inkscape:connector-curvature="0" />
    </g>
    <g
       aria-label="X"
       style="font-style:normal;font-variant:normal;font-weight:normal;font-stretch:normal;font-size:4.23333311px;line-height:1.25;font-family:DIN;-inkscape-font-specification:DIN;text-align:center;letter-spacing:0px;word-spacing:0px;text-anchor:middle;display:inline;fill:#000000;fill-opacity:1;stroke:none;stroke-width:0.26458332"
       id="text3050-3-6-9-9"
       transform="translate(14.000001,15.999975)">
      <path
         d="M 10.464249,190.84758 9.6846103,189.55994 10.411333,188.3358 H 9.9738881 L 9.4764714,189.23539 8.9825825,188.3358 H 8.5451381 l 0.7267222,1.22414 -0.7761111,1.28764 h 0.4374445 l 0.5432777,-0.96308 0.5468056,0.96308 z"
         style="font-size:3.52777767px;fill:#f4da98;fill-opacity:1;stroke-width:0.26458332"
         id="path3458"
         inkscape:connector-curvature="0" />
    </g>
    <g
       aria-label="Y"
       style="font-style:normal;font-variant:normal;font-weight:normal;font-stretch:normal;font-size:4.23333311px;line-height:1.25;font-family:DIN;-inkscape-font-specification:DIN;text-align:center;letter-spacing:0px;word-spacing:0px;text-anchor:middle;display:inline;fill:#000000;fill-opacity:1;stroke:none;stroke-width:0.26458332"
       id="text3050-3-6-9-9-1"
       transform="translate(28,-2.3136667e-5)">
      <path
         d="M 10.421917,204.3358 H 10.005639 L 9.4799999,205.44 8.954361,204.3358 H 8.5380833 l 0.7514166,1.47814 v 1.03364 h 0.381 v -1.03364 z"
         style="font-size:3.52777767px;fill:#f4da98;fill-opacity:1;stroke-width:0.26458332"
         id="path3429"
         inkscape:connector-curvature="0" />
    </g>
  </g>
  <g
     inkscape:groupmode="layer"
     id="layer3"
     inkscape:label="components"
     style="display:none">
    <circle
       style="fill:#0000ff;fill-opacity:1;stroke:none;stroke-width:6.5;stroke-miterlimit:4;stroke-dasharray:none;stroke-opacity:1"
       id="path3019"
       cx="23.48"
       cy="28.499998"
       r="1" />
    <circle
       style="fill:#0000ff;fill-opacity:1;stroke:none;stroke-width:6.5;stroke-miterlimit:4;stroke-dasharray:none;stroke-opacity:1"
       id="path3019-6"
       cx="9.4799995"
       cy="28.500002"
       r="1" />
    <circle
       style="fill:#0000ff;fill-opacity:1;stroke:none;stroke-width:6.5;stroke-miterlimit:4;stroke-dasharray:none;stroke-opacity:1"
       id="path3019-7"
       cx="37.48"
       cy="28.499998"
       r="1" />
    <circle
       style="fill:#0000ff;fill-opacity:1;stroke:none;stroke-width:6.5;stroke-miterlimit:4;stroke-dasharray:none;stroke-opacity:1"
       id="path3019-5"
       cx="51.48"
       cy="28.499998"
       r="1" />
    <circle
       style="fill:#ff0000;fill-opacity:1;stroke:none;stroke-width:6.5;stroke-miterlimit:4;stroke-dasharray:none;stroke-opacity:1"
       id="path3019-5-2"
       cx="51.48"
       cy="116.5"
       r="1" />
    <circle
       style="fill:#ff0000;fill-opacity:1;stroke:none;stroke-width:6.5;stroke-miterlimit:4;stroke-dasharray:none;stroke-opacity:1"
       id="path3019-5-2-7"
       cx="30.48"
       cy="82.5"
       r="1" />
    <circle
       style="display:inline;fill:#ff00ff;fill-opacity:1;stroke:none;stroke-width:6.5;stroke-miterlimit:4;stroke-dasharray:none;stroke-opacity:1"
       id="path3019-62"
       cx="23.48"
       cy="17.500002"
       r="1" />
    <circle
       style="display:inline;fill:#ff00ff;fill-opacity:1;stroke:none;stroke-width:6.5;stroke-miterlimit:4;stroke-dasharray:none;stroke-opacity:1"
       id="path3019-62-6"
       cx="9.4799995"
       cy="17.500002"
       r="1" />
    <circle
       style="display:inline;fill:#ff00ff;fill-opacity:1;stroke:none;stroke-width:6.5;stroke-miterlimit:4;stroke-dasharray:none;stroke-opacity:1"
       id="path3019-62-1"
       cx="37.48"
       cy="17.500002"
       r="1" />
    <circle
       style="display:inline;fill:#ff00ff;fill-opacity:1;stroke:none;stroke-width:6.5;stroke-miterlimit:4;stroke-dasharray:none;stroke-opacity:1"
       id="path3019-62-8"
       cx="51.48"
       cy="17.500002"
       r="1" />
    <circle
       style="display:inline;fill:#00ff00;fill-opacity:1;stroke:none;stroke-width:6.5;stroke-miterlimit:4;stroke-dasharray:none;stroke-opacity:1"
       id="path3019-75"
       cx="37.48"
       cy="44.5"
       r="1" />
    <circle
       style="display:inline;fill:#0000ff;fill-opacity:1;stroke:none;stroke-width:6.5;stroke-miterlimit:4;stroke-dasharray:none;stroke-opacity:1"
       id="path3019-7-9"
       cx="51.48"
       cy="44.5"
       r="1" />
    <circle
       style="display:inline;fill:#00ff00;fill-opacity:1;stroke:none;stroke-width:6.5;stroke-miterlimit:4;stroke-dasharray:none;stroke-opacity:1"
       id="path3019-75-1"
       cx="9.4799995"
       cy="44.5"
       r="1" />
    <circle
       style="display:inline;fill:#00ff00;fill-opacity:1;stroke:none;stroke-width:6.5;stroke-miterlimit:4;stroke-dasharray:none;stroke-opacity:1"
       id="path3019-75-2"
       cx="23.48"
       cy="44.5"
       r="1" />
    <circle
       style="display:inline;fill:#ff00ff;fill-opacity:1;stroke:none;stroke-width:6.5;stroke-miterlimit:4;stroke-dasharray:none;stroke-opacity:1"
       id="path3019-62-8-4"
       cx="8.4799995"
       cy="60.5"
       r="1" />
    <circle
       style="display:inline;fill:#ff00ff;fill-opacity:1;stroke:none;stroke-width:6.5;stroke-miterlimit:4;stroke-dasharray:none;stroke-opacity:1"
       id="path3019-62-8-7"
       cx="52.48"
       cy="60.5"
       r="1" />
    <circle
       style="display:inline;fill:#ff00ff;fill-opacity:1;stroke:none;stroke-width:6.5;stroke-miterlimit:4;stroke-dasharray:none;stroke-opacity:1"
       id="path3019-62-8-8"
       cx="8.4799995"
       cy="104.5"
       r="1" />
    <circle
       style="display:inline;fill:#ff00ff;fill-opacity:1;stroke:none;stroke-width:6.5;stroke-miterlimit:4;stroke-dasharray:none;stroke-opacity:1"
       id="path3019-62-8-45"
       cx="52.48"
       cy="104.5"
       r="1" />
  </g>
</svg>
